
<global>
amp_veltrack=0
ampeg_release=0.65
</global>

<group>
group_label=RR1_85-127
seq_length=8
seq_position=1
xf_cccurve=gain
xfin_hicc1=127
xfin_locc1=85
xfout_hicc1=127
xfout_locc1=127

<region>
hivel=127
key=G5
lovel=1
sample=4Trumpets_staccatissimo_FF_G5_RR1.opus
</region>

<region>
hivel=127
key=G4
lovel=1
offset=123
sample=4Trumpets_staccatissimo_FF_G4_RR1.opus
</region>

<region>
hivel=127
key=G3
lovel=1
sample=4Trumpets_staccatissimo_FF_G3_RR1.opus
</region>

<region>
hivel=127
key=G#5
lovel=1
sample=4Trumpets_staccatissimo_FF_G#5_RR1.opus
</region>

<region>
hivel=127
key=G#4
lovel=1
sample=4Trumpets_staccatissimo_FF_G#4_RR1.opus
</region>

<region>
hivel=127
key=G#3
lovel=1
offset=748
sample=4Trumpets_staccatissimo_FF_G#3_RR1.opus
</region>

<region>
hivel=127
key=F5
lovel=1
offset=198
sample=4Trumpets_staccatissimo_FF_F5_RR1.opus
</region>

<region>
hivel=127
key=F4
lovel=1
offset=1376
sample=4Trumpets_staccatissimo_FF_F4_RR1.opus
</region>

<region>
hivel=127
key=F#5
lovel=1
offset=115
sample=4Trumpets_staccatissimo_FF_F#5_RR1.opus
</region>

<region>
hivel=127
key=f#4
lovel=1
offset=300
sample=4Trumpets_staccatissimo_FF_F#4_RR1.opus
</region>

<region>
hivel=127
key=F#3
lovel=1
offset=129
sample=4Trumpets_staccatissimo_FF_F#3_RR1.opus
</region>

<region>
hivel=127
key=e5
lovel=1
offset=264
sample=4Trumpets_staccatissimo_FF_E5_RR1.opus
</region>

<region>
hivel=127
key=E4
lovel=1
sample=4Trumpets_staccatissimo_FF_E4_RR1.opus
</region>

<region>
hivel=127
key=D5
lovel=1
sample=4Trumpets_staccatissimo_FF_D5_RR1.opus
</region>

<region>
hivel=127
key=D4
lovel=1
sample=4Trumpets_staccatissimo_FF_D4_RR1.opus
</region>

<region>
hivel=127
key=D#5
lovel=1
sample=4Trumpets_staccatissimo_FF_D#5_RR1.opus
</region>

<region>
hivel=127
key=D#4
lovel=1
sample=4Trumpets_staccatissimo_FF_D#4_RR1.opus
</region>

<region>
hivel=127
key=C6
lovel=1
sample=4Trumpets_staccatissimo_FF_C6_RR1.opus
</region>

<region>
hivel=127
key=C5
lovel=1
offset=428
sample=4Trumpets_staccatissimo_FF_C5_RR1.opus
</region>

<region>
hivel=127
key=C4
lovel=1
offset=404
sample=4Trumpets_staccatissimo_FF_C4_RR1.opus
</region>

<region>
hivel=127
key=C#5
lovel=1
sample=4Trumpets_staccatissimo_FF_C#5_RR1.opus
</region>

<region>
hivel=127
key=C#4
lovel=1
offset=16
sample=4Trumpets_staccatissimo_FF_C#4_RR1.opus
</region>

<region>
hivel=127
key=B5
lovel=1
offset=195
sample=4Trumpets_staccatissimo_FF_B5_RR1.opus
</region>

<region>
hivel=127
key=b4
lovel=1
sample=4Trumpets_staccatissimo_FF_B4_RR1.opus
</region>

<region>
hivel=127
key=B3
lovel=1
offset=60
sample=4Trumpets_staccatissimo_FF_B3_RR1.opus
</region>

<region>
hivel=127
key=A5
lovel=1
offset=211
sample=4Trumpets_staccatissimo_FF_A5_RR1.opus
</region>

<region>
hivel=127
key=A4
lovel=1
sample=4Trumpets_staccatissimo_FF_A4_RR1.opus
</region>

<region>
hivel=127
key=A3
lovel=1
offset=164
sample=4Trumpets_staccatissimo_FF_A3_RR1.opus
</region>

<region>
hivel=127
key=A#5
lovel=1
sample=4Trumpets_staccatissimo_FF_A#5_RR1.opus
</region>

<region>
hivel=127
key=A#4
lovel=1
offset=25
sample=4Trumpets_staccatissimo_FF_A#4_RR1.opus
</region>

<region>
hivel=127
key=A#3
lovel=1
sample=4Trumpets_staccatissimo_FF_A#3_RR1.opus
</region>
</group>

<group>
group_label=RR1_43-84
seq_length=8
seq_position=1
xf_cccurve=gain
xfin_hicc1=84
xfin_locc1=43
xfout_hicc1=125
xfout_locc1=84

<region>
hivel=127
key=G5
lovel=1
sample=4Trumpets_staccatissimo_MF_G5_RR1.opus
</region>

<region>
hivel=127
key=G4
lovel=1
sample=4Trumpets_staccatissimo_MF_G4_RR1.opus
</region>

<region>
hivel=127
key=G3
lovel=1
offset=492
sample=4Trumpets_staccatissimo_MF_G3_RR1.opus
</region>

<region>
hivel=127
key=G#5
lovel=1
sample=4Trumpets_staccatissimo_MF_G#5_RR1.opus
</region>

<region>
hivel=127
key=G#4
lovel=1
sample=4Trumpets_staccatissimo_MF_G#4_RR1.opus
</region>

<region>
hivel=127
key=G#3
lovel=1
offset=563
sample=4Trumpets_staccatissimo_MF_G#3_RR1.opus
</region>

<region>
hivel=127
key=F5
lovel=1
offset=79
sample=4Trumpets_staccatissimo_MF_F5_RR1.opus
</region>

<region>
hivel=127
key=F4
lovel=1
offset=112
sample=4Trumpets_staccatissimo_MF_F4_RR1.opus
</region>

<region>
hivel=127
key=F#5
lovel=1
offset=5595
sample=4Trumpets_staccatissimo_MF_F#5_RR1.opus
</region>

<region>
hivel=127
key=F#4
lovel=1
offset=54
sample=4Trumpets_staccatissimo_MF_F#4_RR1.opus
</region>

<region>
hivel=127
key=F#3
lovel=1
offset=1841
sample=4Trumpets_staccatissimo_MF_F#3_RR1.opus
</region>

<region>
hivel=127
key=E5
lovel=1
offset=865
sample=4Trumpets_staccatissimo_MF_E5_RR1.opus
</region>

<region>
hivel=127
key=E4
lovel=1
sample=4Trumpets_staccatissimo_MF_E4_RR1.opus
</region>

<region>
hivel=127
key=D5
lovel=1
offset=65
sample=4Trumpets_staccatissimo_MF_D5_RR1.opus
</region>

<region>
hivel=127
key=D4
lovel=1
offset=25
sample=4Trumpets_staccatissimo_MF_D4_RR1.opus
</region>

<region>
hivel=127
key=D#5
lovel=1
offset=297
sample=4Trumpets_staccatissimo_MF_D#5_RR1.opus
</region>

<region>
hivel=127
key=D#4
lovel=1
offset=5
sample=4Trumpets_staccatissimo_MF_D#4_RR1.opus
</region>

<region>
hivel=127
key=C6
lovel=1
sample=4Trumpets_staccatissimo_MF_C6_RR1.opus
</region>

<region>
hivel=127
key=C5
lovel=1
offset=642
sample=4Trumpets_staccatissimo_MF_C5_RR1.opus
</region>

<region>
hivel=127
key=C4
lovel=1
sample=4Trumpets_staccatissimo_MF_C4_RR1.opus
</region>

<region>
hivel=127
key=C#5
lovel=1
offset=2110
sample=4Trumpets_staccatissimo_MF_C#5_RR1.opus
</region>

<region>
hivel=127
key=C#4
lovel=1
offset=651
sample=4Trumpets_staccatissimo_MF_C#4_RR1.opus
</region>

<region>
hivel=127
key=B5
lovel=1
sample=4Trumpets_staccatissimo_MF_B5_RR1.opus
</region>

<region>
hivel=127
key=B4
lovel=1
sample=4Trumpets_staccatissimo_MF_B4_RR1.opus
</region>

<region>
hivel=127
key=B3
lovel=1
offset=611
sample=4Trumpets_staccatissimo_MF_B3_RR1.opus
</region>

<region>
hivel=127
key=A5
lovel=1
sample=4Trumpets_staccatissimo_MF_A5_RR1.opus
</region>

<region>
hivel=127
key=a4
lovel=1
offset=77
sample=4Trumpets_staccatissimo_MF_A4_RR1.opus
</region>

<region>
hivel=127
key=A3
lovel=1
offset=234
sample=4Trumpets_staccatissimo_MF_A3_RR1.opus
</region>

<region>
hivel=127
key=A#5
lovel=1
sample=4Trumpets_staccatissimo_MF_A#5_RR1.opus
</region>

<region>
hivel=127
key=A#4
lovel=1
offset=64
sample=4Trumpets_staccatissimo_MF_A#4_RR1.opus
</region>

<region>
hivel=127
key=A#3
lovel=1
offset=282
sample=4Trumpets_staccatissimo_MF_A#3_RR1.opus
</region>
</group>

<group>
group_label=RR1_0-42
seq_length=8
seq_position=1
xf_cccurve=gain
xfin_hicc1=42
xfout_hicc1=84
xfout_locc1=42

<region>
hivel=127
key=G5
lovel=1
offset=940
sample=4Trumpets_staccatissimo_PP_G5_RR1.opus
</region>

<region>
hivel=127
key=G4
lovel=1
sample=4Trumpets_staccatissimo_PP_G4_RR1.opus
</region>

<region>
hivel=127
key=G3
lovel=1
offset=542
sample=4Trumpets_staccatissimo_PP_G3_RR1.opus
</region>

<region>
hivel=127
key=G#5
lovel=1
sample=4Trumpets_staccatissimo_PP_G#5_RR1.opus
</region>

<region>
hivel=127
key=G#4
lovel=1
offset=281
sample=4Trumpets_staccatissimo_PP_G#4_RR1.opus
</region>

<region>
hivel=127
key=G#3
lovel=1
offset=230
sample=4Trumpets_staccatissimo_PP_G#3_RR1.opus
</region>

<region>
hivel=127
key=F5
lovel=1
offset=63
sample=4Trumpets_staccatissimo_PP_F5_RR1.opus
</region>

<region>
hivel=127
key=F4
lovel=1
offset=298
sample=4Trumpets_staccatissimo_PP_F4_RR1.opus
</region>

<region>
hivel=127
key=F#5
lovel=1
sample=4Trumpets_staccatissimo_PP_F#5_RR1.opus
</region>

<region>
hivel=127
key=F#4
lovel=1
sample=4Trumpets_staccatissimo_PP_F#4_RR1.opus
</region>

<region>
hivel=127
key=F#3
lovel=1
offset=1690
sample=4Trumpets_staccatissimo_PP_F#3_RR1.opus
</region>

<region>
hivel=127
key=E5
lovel=1
offset=4639
sample=4Trumpets_staccatissimo_PP_E5_RR1.opus
</region>

<region>
hivel=127
key=E4
lovel=1
offset=432
sample=4Trumpets_staccatissimo_PP_E4_RR1.opus
</region>

<region>
hivel=127
key=D5
lovel=1
offset=176
sample=4Trumpets_staccatissimo_PP_D5_RR1.opus
</region>

<region>
hivel=127
key=D4
lovel=1
offset=777
sample=4Trumpets_staccatissimo_PP_D4_RR1.opus
</region>

<region>
hivel=127
key=D#5
lovel=1
sample=4Trumpets_staccatissimo_PP_D#5_RR1.opus
</region>

<region>
hivel=127
key=D#4
lovel=1
offset=2285
sample=4Trumpets_staccatissimo_PP_D#4_RR1.opus
</region>

<region>
hivel=127
key=C6
lovel=1
sample=4Trumpets_staccatissimo_PP_C6_RR1.opus
</region>

<region>
hivel=127
key=C5
lovel=1
sample=4Trumpets_staccatissimo_PP_C5_RR1.opus
</region>

<region>
hivel=127
key=C4
lovel=1
offset=381
sample=4Trumpets_staccatissimo_PP_C4_RR1.opus
</region>

<region>
hivel=127
key=C#5
lovel=1
offset=812
sample=4Trumpets_staccatissimo_PP_C#5_RR1.opus
</region>

<region>
hivel=127
key=C#4
lovel=1
offset=739
sample=4Trumpets_staccatissimo_PP_C#4_RR1.opus
</region>

<region>
hivel=127
key=B5
lovel=1
sample=4Trumpets_staccatissimo_PP_B5_RR1.opus
</region>

<region>
hivel=127
key=B4
lovel=1
offset=635
sample=4Trumpets_staccatissimo_PP_B4_RR1.opus
</region>

<region>
hivel=127
key=B3
lovel=1
offset=380
sample=4Trumpets_staccatissimo_PP_B3_RR1.opus
</region>

<region>
hivel=127
key=A5
lovel=1
offset=430
sample=4Trumpets_staccatissimo_PP_A5_RR1.opus
</region>

<region>
hivel=127
key=A4
lovel=1
offset=63
sample=4Trumpets_staccatissimo_PP_A4_RR1.opus
</region>

<region>
hivel=127
key=A3
lovel=1
offset=265
sample=4Trumpets_staccatissimo_PP_A3_RR1.opus
</region>

<region>
hivel=127
key=A#5
lovel=1
offset=6810
sample=4Trumpets_staccatissimo_PP_A#5_RR1.opus
</region>

<region>
hivel=127
key=A#4
lovel=1
offset=240
sample=4Trumpets_staccatissimo_PP_A#4_RR1.opus
</region>

<region>
hivel=127
key=A#3
lovel=1
sample=4Trumpets_staccatissimo_PP_A#3_RR1.opus
</region>
</group>

<group>
group_label=RR2_85-127
seq_length=8
seq_position=2
xf_cccurve=gain
xfin_hicc1=127
xfin_locc1=85
xfout_hicc1=127
xfout_locc1=127

<region>
hivel=127
key=G5
lovel=1
offset=758
sample=4Trumpets_staccatissimo_FF_G5_RR2.opus
</region>

<region>
hivel=127
key=G4
lovel=1
offset=318
sample=4Trumpets_staccatissimo_FF_G4_RR2.opus
</region>

<region>
hivel=127
key=G3
lovel=1
sample=4Trumpets_staccatissimo_FF_G3_RR2.opus
</region>

<region>
hivel=127
key=G#5
lovel=1
sample=4Trumpets_staccatissimo_FF_G#5_RR2.opus
</region>

<region>
hivel=127
key=G#4
lovel=1
sample=4Trumpets_staccatissimo_FF_G#4_RR2.opus
</region>

<region>
hivel=127
key=G#3
lovel=1
sample=4Trumpets_staccatissimo_FF_G#3_RR2.opus
</region>

<region>
hivel=127
key=F5
lovel=1
offset=140
sample=4Trumpets_staccatissimo_FF_F5_RR2.opus
</region>

<region>
hivel=127
key=F4
lovel=1
sample=4Trumpets_staccatissimo_FF_F4_RR2.opus
</region>

<region>
hivel=127
key=F#5
lovel=1
offset=138
sample=4Trumpets_staccatissimo_FF_F#5_RR2.opus
</region>

<region>
hivel=127
key=F#4
lovel=1
offset=57
sample=4Trumpets_staccatissimo_FF_F#4_RR2.opus
</region>

<region>
hivel=127
key=F#3
lovel=1
sample=4Trumpets_staccatissimo_FF_F#3_RR2.opus
</region>

<region>
hivel=127
key=E5
lovel=1
sample=4Trumpets_staccatissimo_FF_E5_RR2.opus
</region>

<region>
hivel=127
key=E4
lovel=1
offset=380
sample=4Trumpets_staccatissimo_FF_E4_RR2.opus
</region>

<region>
hivel=127
key=D5
lovel=1
sample=4Trumpets_staccatissimo_FF_D5_RR2.opus
</region>

<region>
hivel=127
key=D4
lovel=1
offset=345
sample=4Trumpets_staccatissimo_FF_D4_RR2.opus
</region>

<region>
hivel=127
key=D#5
lovel=1
offset=861
sample=4Trumpets_staccatissimo_FF_D#5_RR2.opus
</region>

<region>
hivel=127
key=D#4
lovel=1
offset=1244
sample=4Trumpets_staccatissimo_FF_D#4_RR2.opus
</region>

<region>
hivel=127
key=C6
lovel=1
sample=4Trumpets_staccatissimo_FF_C6_RR2.opus
</region>

<region>
hivel=127
key=C5
lovel=1
offset=1795
sample=4Trumpets_staccatissimo_FF_C5_RR2.opus
</region>

<region>
hivel=127
key=C4
lovel=1
offset=648
sample=4Trumpets_staccatissimo_FF_C4_RR2.opus
</region>

<region>
hivel=127
key=C#5
lovel=1
sample=4Trumpets_staccatissimo_FF_C#5_RR2.opus
</region>

<region>
hivel=127
key=C#4
lovel=1
sample=4Trumpets_staccatissimo_FF_C#4_RR2.opus
</region>

<region>
hivel=127
key=B5
lovel=1
sample=4Trumpets_staccatissimo_FF_B5_RR2.opus
</region>

<region>
hivel=127
key=B4
lovel=1
offset=215
sample=4Trumpets_staccatissimo_FF_B4_RR2.opus
</region>

<region>
hivel=127
key=B3
lovel=1
offset=280
sample=4Trumpets_staccatissimo_FF_B3_RR2.opus
</region>

<region>
hivel=127
key=A5
lovel=1
sample=4Trumpets_staccatissimo_FF_A5_RR2.opus
</region>

<region>
hivel=127
key=A4
lovel=1
sample=4Trumpets_staccatissimo_FF_A4_RR2.opus
</region>

<region>
hivel=127
key=A3
lovel=1
offset=369
sample=4Trumpets_staccatissimo_FF_A3_RR2.opus
</region>

<region>
hivel=127
key=A#5
lovel=1
offset=10
sample=4Trumpets_staccatissimo_FF_A#5_RR2.opus
</region>

<region>
hivel=127
key=A#4
lovel=1
offset=134
sample=4Trumpets_staccatissimo_FF_A#4_RR2.opus
</region>

<region>
hivel=127
key=A#3
lovel=1
offset=81
sample=4Trumpets_staccatissimo_FF_A#3_RR2.opus
</region>
</group>

<group>
group_label=RR2_43-84
seq_length=8
seq_position=2
xf_cccurve=gain
xfin_hicc1=84
xfin_locc1=43
xfout_hicc1=125
xfout_locc1=84

<region>
hivel=127
key=G5
lovel=1
sample=4Trumpets_staccatissimo_MF_G5_RR2.opus
</region>

<region>
hivel=127
key=G4
lovel=1
sample=4Trumpets_staccatissimo_MF_G4_RR2.opus
</region>

<region>
hivel=127
key=G3
lovel=1
offset=11
sample=4Trumpets_staccatissimo_MF_G3_RR2.opus
</region>

<region>
hivel=127
key=G#5
lovel=1
offset=157
sample=4Trumpets_staccatissimo_MF_G#5_RR2.opus
</region>

<region>
hivel=127
key=G#4
lovel=1
sample=4Trumpets_staccatissimo_MF_G#4_RR2.opus
</region>

<region>
hivel=127
key=G#3
lovel=1
offset=211
sample=4Trumpets_staccatissimo_MF_G#3_RR2.opus
</region>

<region>
hivel=127
key=F5
lovel=1
offset=302
sample=4Trumpets_staccatissimo_MF_F5_RR2.opus
</region>

<region>
hivel=127
key=F4
lovel=1
sample=4Trumpets_staccatissimo_MF_F4_RR2.opus
</region>

<region>
hivel=127
key=F#5
lovel=1
sample=4Trumpets_staccatissimo_MF_F#5_RR2.opus
</region>

<region>
hivel=127
key=F#4
lovel=1
sample=4Trumpets_staccatissimo_MF_F#4_RR2.opus
</region>

<region>
hivel=127
key=F#3
lovel=1
offset=652
sample=4Trumpets_staccatissimo_MF_F#3_RR2.opus
</region>

<region>
hivel=127
key=E5
lovel=1
sample=4Trumpets_staccatissimo_MF_E5_RR2.opus
</region>

<region>
hivel=127
key=E4
lovel=1
offset=422
sample=4Trumpets_staccatissimo_MF_E4_RR2.opus
</region>

<region>
hivel=127
key=D5
lovel=1
offset=910
sample=4Trumpets_staccatissimo_MF_D5_RR2.opus
</region>

<region>
hivel=127
key=D4
lovel=1
offset=621
sample=4Trumpets_staccatissimo_MF_D4_RR2.opus
</region>

<region>
hivel=127
key=D#5
lovel=1
offset=387
sample=4Trumpets_staccatissimo_MF_D#5_RR2.opus
</region>

<region>
hivel=127
key=D#4
lovel=1
sample=4Trumpets_staccatissimo_MF_D#4_RR2.opus
</region>

<region>
hivel=127
key=C6
lovel=1
sample=4Trumpets_staccatissimo_MF_C6_RR2.opus
</region>

<region>
hivel=127
key=C5
lovel=1
offset=595
sample=4Trumpets_staccatissimo_MF_C5_RR2.opus
</region>

<region>
hivel=127
key=C4
lovel=1
offset=544
sample=4Trumpets_staccatissimo_MF_C4_RR2.opus
</region>

<region>
hivel=127
key=C#5
lovel=1
offset=263
sample=4Trumpets_staccatissimo_MF_C#5_RR2.opus
</region>

<region>
hivel=127
key=C#4
lovel=1
offset=114
sample=4Trumpets_staccatissimo_MF_C#4_RR2.opus
</region>

<region>
hivel=127
key=B5
lovel=1
offset=1445
sample=4Trumpets_staccatissimo_MF_B5_RR2.opus
</region>

<region>
hivel=127
key=B4
lovel=1
offset=34
sample=4Trumpets_staccatissimo_MF_B4_RR2.opus
</region>

<region>
hivel=127
key=B3
lovel=1
offset=304
sample=4Trumpets_staccatissimo_MF_B3_RR2.opus
</region>

<region>
hivel=127
key=A5
lovel=1
offset=481
sample=4Trumpets_staccatissimo_MF_A5_RR2.opus
</region>

<region>
hivel=127
key=A4
lovel=1
sample=4Trumpets_staccatissimo_MF_A4_RR2.opus
</region>

<region>
hivel=127
key=A3
lovel=1
offset=67
sample=4Trumpets_staccatissimo_MF_A3_RR2.opus
</region>

<region>
hivel=127
key=A#5
lovel=1
offset=283
sample=4Trumpets_staccatissimo_MF_A#5_RR2.opus
</region>

<region>
hivel=127
key=A#4
lovel=1
sample=4Trumpets_staccatissimo_MF_A#4_RR2.opus
</region>

<region>
hivel=127
key=A#3
lovel=1
offset=154
sample=4Trumpets_staccatissimo_MF_A#3_RR2.opus
</region>
</group>

<group>
group_label=RR2_0-42
seq_length=8
seq_position=2
xf_cccurve=gain
xfin_hicc1=42
xfout_hicc1=84
xfout_locc1=42

<region>
hivel=127
key=G5
lovel=1
offset=65
sample=4Trumpets_staccatissimo_PP_G5_RR2.opus
</region>

<region>
hivel=127
key=G4
lovel=1
sample=4Trumpets_staccatissimo_PP_G4_RR2.opus
</region>

<region>
hivel=127
key=G3
lovel=1
offset=483
sample=4Trumpets_staccatissimo_PP_G3_RR2.opus
</region>

<region>
hivel=127
key=G#5
lovel=1
offset=55
sample=4Trumpets_staccatissimo_PP_G#5_RR2.opus
</region>

<region>
hivel=127
key=G#4
lovel=1
sample=4Trumpets_staccatissimo_PP_G#4_RR2.opus
</region>

<region>
hivel=127
key=G#3
lovel=1
offset=330
sample=4Trumpets_staccatissimo_PP_G#3_RR2.opus
</region>

<region>
hivel=127
key=F5
lovel=1
sample=4Trumpets_staccatissimo_PP_F5_RR2.opus
</region>

<region>
hivel=127
key=F4
lovel=1
offset=547
sample=4Trumpets_staccatissimo_PP_F4_RR2.opus
</region>

<region>
hivel=127
key=F#5
lovel=1
offset=483
sample=4Trumpets_staccatissimo_PP_F#5_RR2.opus
</region>

<region>
hivel=127
key=F#4
lovel=1
offset=21
sample=4Trumpets_staccatissimo_PP_F#4_RR2.opus
</region>

<region>
hivel=127
key=F#3
lovel=1
offset=836
sample=4Trumpets_staccatissimo_PP_F#3_RR2.opus
</region>

<region>
hivel=127
key=E5
lovel=1
sample=4Trumpets_staccatissimo_PP_E5_RR2.opus
</region>

<region>
hivel=127
key=E4
lovel=1
offset=238
sample=4Trumpets_staccatissimo_PP_E4_RR2.opus
</region>

<region>
hivel=127
key=D5
lovel=1
offset=90
sample=4Trumpets_staccatissimo_PP_D5_RR2.opus
</region>

<region>
hivel=127
key=D4
lovel=1
offset=799
sample=4Trumpets_staccatissimo_PP_D4_RR2.opus
</region>

<region>
hivel=127
key=D#5
lovel=1
offset=483
sample=4Trumpets_staccatissimo_PP_D#5_RR2.opus
</region>

<region>
hivel=127
key=D#4
lovel=1
offset=29
sample=4Trumpets_staccatissimo_PP_D#4_RR2.opus
</region>

<region>
hivel=127
key=C6
lovel=1
offset=1121
sample=4Trumpets_staccatissimo_PP_C6_RR2.opus
</region>

<region>
hivel=127
key=C5
lovel=1
sample=4Trumpets_staccatissimo_PP_C5_RR2.opus
</region>

<region>
hivel=127
key=C4
lovel=1
offset=574
sample=4Trumpets_staccatissimo_PP_C4_RR2.opus
</region>

<region>
hivel=127
key=C#5
lovel=1
offset=31
sample=4Trumpets_staccatissimo_PP_C#5_RR2.opus
</region>

<region>
hivel=127
key=C#4
lovel=1
offset=426
sample=4Trumpets_staccatissimo_PP_C#4_RR2.opus
</region>

<region>
hivel=127
key=B5
lovel=1
sample=4Trumpets_staccatissimo_PP_B5_RR2.opus
</region>

<region>
hivel=127
key=B4
lovel=1
offset=879
sample=4Trumpets_staccatissimo_PP_B4_RR2.opus
</region>

<region>
hivel=127
key=B3
lovel=1
offset=606
sample=4Trumpets_staccatissimo_PP_B3_RR2.opus
</region>

<region>
hivel=127
key=A5
lovel=1
offset=388
sample=4Trumpets_staccatissimo_PP_A5_RR2.opus
</region>

<region>
hivel=127
key=A4
lovel=1
offset=65
sample=4Trumpets_staccatissimo_PP_A4_RR2.opus
</region>

<region>
hivel=127
key=A3
lovel=1
offset=532
sample=4Trumpets_staccatissimo_PP_A3_RR2.opus
</region>

<region>
hivel=127
key=A#5
lovel=1
sample=4Trumpets_staccatissimo_PP_A#5_RR2.opus
</region>

<region>
hivel=127
key=A#4
lovel=1
offset=35
sample=4Trumpets_staccatissimo_PP_A#4_RR2.opus
</region>

<region>
hivel=127
key=A#3
lovel=1
sample=4Trumpets_staccatissimo_PP_A#3_RR2.opus
</region>
</group>

<group>
group_label=RR3_85-127
seq_length=8
seq_position=3
xf_cccurve=gain
xfin_hicc1=127
xfin_locc1=85
xfout_hicc1=127
xfout_locc1=127

<region>
hivel=127
key=G5
lovel=1
sample=4Trumpets_staccatissimo_FF_G5_RR3.opus
</region>

<region>
hivel=127
key=G4
lovel=1
offset=640
sample=4Trumpets_staccatissimo_FF_G4_RR3.opus
</region>

<region>
hivel=127
key=G3
lovel=1
sample=4Trumpets_staccatissimo_FF_G3_RR3.opus
</region>

<region>
hivel=127
key=G#5
lovel=1
offset=69
sample=4Trumpets_staccatissimo_FF_G#5_RR3.opus
</region>

<region>
hivel=127
key=G#4
lovel=1
sample=4Trumpets_staccatissimo_FF_G#4_RR3.opus
</region>

<region>
hivel=127
key=G#3
lovel=1
offset=440
sample=4Trumpets_staccatissimo_FF_G#3_RR3.opus
</region>

<region>
hivel=127
key=F5
lovel=1
offset=193
sample=4Trumpets_staccatissimo_FF_F5_RR3.opus
</region>

<region>
hivel=127
key=F4
lovel=1
sample=4Trumpets_staccatissimo_FF_F4_RR3.opus
</region>

<region>
hivel=127
key=F#5
lovel=1
offset=145
sample=4Trumpets_staccatissimo_FF_F#5_RR3.opus
</region>

<region>
hivel=127
key=F#4
lovel=1
offset=91
sample=4Trumpets_staccatissimo_FF_F#4_RR3.opus
</region>

<region>
hivel=127
key=F#3
lovel=1
offset=495
sample=4Trumpets_staccatissimo_FF_F#3_RR3.opus
</region>

<region>
hivel=127
key=E5
lovel=1
sample=4Trumpets_staccatissimo_FF_E5_RR3.opus
</region>

<region>
hivel=127
key=E4
lovel=1
offset=408
sample=4Trumpets_staccatissimo_FF_E4_RR3.opus
</region>

<region>
hivel=127
key=D5
lovel=1
offset=54
sample=4Trumpets_staccatissimo_FF_D5_RR3.opus
</region>

<region>
hivel=127
key=D4
lovel=1
sample=4Trumpets_staccatissimo_FF_D4_RR3.opus
</region>

<region>
hivel=127
key=D#5
lovel=1
offset=157
sample=4Trumpets_staccatissimo_FF_D#5_RR3.opus
</region>

<region>
hivel=127
key=D#4
lovel=1
sample=4Trumpets_staccatissimo_FF_D#4_RR3.opus
</region>

<region>
hivel=127
key=C6
lovel=1
sample=4Trumpets_staccatissimo_FF_C6_RR3.opus
</region>

<region>
hivel=127
key=C5
lovel=1
sample=4Trumpets_staccatissimo_FF_C5_RR3.opus
</region>

<region>
hivel=127
key=C4
lovel=1
offset=105
sample=4Trumpets_staccatissimo_FF_C4_RR3.opus
</region>

<region>
hivel=127
key=C#5
lovel=1
sample=4Trumpets_staccatissimo_FF_C#5_RR3.opus
</region>

<region>
hivel=127
key=C#4
lovel=1
offset=247
sample=4Trumpets_staccatissimo_FF_C#4_RR3.opus
</region>

<region>
hivel=127
key=B5
lovel=1
sample=4Trumpets_staccatissimo_FF_B5_RR3.opus
</region>

<region>
hivel=127
key=B4
lovel=1
sample=4Trumpets_staccatissimo_FF_B4_RR3.opus
</region>

<region>
hivel=127
key=B3
lovel=1
offset=28
sample=4Trumpets_staccatissimo_FF_B3_RR3.opus
</region>

<region>
hivel=127
key=A5
lovel=1
offset=218
sample=4Trumpets_staccatissimo_FF_A5_RR3.opus
</region>

<region>
hivel=127
key=A4
lovel=1
sample=4Trumpets_staccatissimo_FF_A4_RR3.opus
</region>

<region>
hivel=127
key=A3
lovel=1
sample=4Trumpets_staccatissimo_FF_A3_RR3.opus
</region>

<region>
hivel=127
key=A#5
lovel=1
sample=4Trumpets_staccatissimo_FF_A#5_RR3.opus
</region>

<region>
hivel=127
key=A#4
lovel=1
offset=123
sample=4Trumpets_staccatissimo_FF_A#4_RR3.opus
</region>

<region>
hivel=127
key=A#3
lovel=1
offset=250
sample=4Trumpets_staccatissimo_FF_A#3_RR3.opus
</region>
</group>

<group>
group_label=RR3_43-84
seq_length=8
seq_position=3
xf_cccurve=gain
xfin_hicc1=84
xfin_locc1=43
xfout_hicc1=125
xfout_locc1=84

<region>
hivel=127
key=G5
lovel=1
offset=627
sample=4Trumpets_staccatissimo_MF_G5_RR3.opus
</region>

<region>
hivel=127
key=G4
lovel=1
offset=20
sample=4Trumpets_staccatissimo_MF_G4_RR3.opus
</region>

<region>
hivel=127
key=G3
lovel=1
offset=586
sample=4Trumpets_staccatissimo_MF_G3_RR3.opus
</region>

<region>
hivel=127
key=G#5
lovel=1
offset=108
sample=4Trumpets_staccatissimo_MF_G#5_RR3.opus
</region>

<region>
hivel=127
key=G#4
lovel=1
sample=4Trumpets_staccatissimo_MF_G#4_RR3.opus
</region>

<region>
hivel=127
key=G#3
lovel=1
offset=607
sample=4Trumpets_staccatissimo_MF_G#3_RR3.opus
</region>

<region>
hivel=127
key=F5
lovel=1
offset=377
sample=4Trumpets_staccatissimo_MF_F5_RR3.opus
</region>

<region>
hivel=127
key=F4
lovel=1
offset=1054
sample=4Trumpets_staccatissimo_MF_F4_RR3.opus
</region>

<region>
hivel=127
key=F#5
lovel=1
offset=424
sample=4Trumpets_staccatissimo_MF_F#5_RR3.opus
</region>

<region>
hivel=127
key=F#4
lovel=1
sample=4Trumpets_staccatissimo_MF_F#4_RR3.opus
</region>

<region>
hivel=127
key=F#3
lovel=1
offset=1191
sample=4Trumpets_staccatissimo_MF_F#3_RR3.opus
</region>

<region>
hivel=127
key=E5
lovel=1
offset=555
sample=4Trumpets_staccatissimo_MF_E5_RR3.opus
</region>

<region>
hivel=127
key=E4
lovel=1
sample=4Trumpets_staccatissimo_MF_E4_RR3.opus
</region>

<region>
hivel=127
key=D5
lovel=1
offset=344
sample=4Trumpets_staccatissimo_MF_D5_RR3.opus
</region>

<region>
hivel=127
key=D4
lovel=1
offset=490
sample=4Trumpets_staccatissimo_MF_D4_RR3.opus
</region>

<region>
hivel=127
key=D#5
lovel=1
offset=174
sample=4Trumpets_staccatissimo_MF_D#5_RR3.opus
</region>

<region>
hivel=127
key=D#4
lovel=1
offset=613
sample=4Trumpets_staccatissimo_MF_D#4_RR3.opus
</region>

<region>
hivel=127
key=C6
lovel=1
offset=417
sample=4Trumpets_staccatissimo_MF_C6_RR3.opus
</region>

<region>
hivel=127
key=C5
lovel=1
offset=411
sample=4Trumpets_staccatissimo_MF_C5_RR3.opus
</region>

<region>
hivel=127
key=C4
lovel=1
offset=583
sample=4Trumpets_staccatissimo_MF_C4_RR3.opus
</region>

<region>
hivel=127
key=C#5
lovel=1
sample=4Trumpets_staccatissimo_MF_C#5_RR3.opus
</region>

<region>
hivel=127
key=C#4
lovel=1
offset=461
sample=4Trumpets_staccatissimo_MF_C#4_RR3.opus
</region>

<region>
hivel=127
key=B5
lovel=1
offset=147
sample=4Trumpets_staccatissimo_MF_B5_RR3.opus
</region>

<region>
hivel=127
key=B4
lovel=1
sample=4Trumpets_staccatissimo_MF_B4_RR3.opus
</region>

<region>
hivel=127
key=B3
lovel=1
offset=140
sample=4Trumpets_staccatissimo_MF_B3_RR3.opus
</region>

<region>
hivel=127
key=A5
lovel=1
offset=688
sample=4Trumpets_staccatissimo_MF_A5_RR3.opus
</region>

<region>
hivel=127
key=A4
lovel=1
offset=470
sample=4Trumpets_staccatissimo_MF_A4_RR3.opus
</region>

<region>
hivel=127
key=A3
lovel=1
offset=550
sample=4Trumpets_staccatissimo_MF_A3_RR3.opus
</region>

<region>
hivel=127
key=A#5
lovel=1
offset=482
sample=4Trumpets_staccatissimo_MF_A#5_RR3.opus
</region>

<region>
hivel=127
key=A#4
lovel=1
offset=602
sample=4Trumpets_staccatissimo_MF_A#4_RR3.opus
</region>

<region>
hivel=127
key=A#3
lovel=1
offset=391
sample=4Trumpets_staccatissimo_MF_A#3_RR3.opus
</region>
</group>

<group>
group_label=RR3_0-42
seq_length=8
seq_position=3
xf_cccurve=gain
xfin_hicc1=42
xfout_hicc1=84
xfout_locc1=42

<region>
hivel=127
key=G5
lovel=1
offset=868
sample=4Trumpets_staccatissimo_PP_G5_RR3.opus
</region>

<region>
hivel=127
key=G4
lovel=1
sample=4Trumpets_staccatissimo_PP_G4_RR3.opus
</region>

<region>
hivel=127
key=G3
lovel=1
offset=305
sample=4Trumpets_staccatissimo_PP_G3_RR3.opus
</region>

<region>
hivel=127
key=G#5
lovel=1
offset=333
sample=4Trumpets_staccatissimo_PP_G#5_RR3.opus
</region>

<region>
hivel=127
key=G#4
lovel=1
offset=120
sample=4Trumpets_staccatissimo_PP_G#4_RR3.opus
</region>

<region>
hivel=127
key=G#3
lovel=1
offset=1607
sample=4Trumpets_staccatissimo_PP_G#3_RR3.opus
</region>

<region>
hivel=127
key=F5
lovel=1
sample=4Trumpets_staccatissimo_PP_F5_RR3.opus
</region>

<region>
hivel=127
key=F4
lovel=1
sample=4Trumpets_staccatissimo_PP_F4_RR3.opus
</region>

<region>
hivel=127
key=F#5
lovel=1
offset=231
sample=4Trumpets_staccatissimo_PP_F#5_RR3.opus
</region>

<region>
hivel=127
key=F#4
lovel=1
offset=165
sample=4Trumpets_staccatissimo_PP_F#4_RR3.opus
</region>

<region>
hivel=127
key=F#3
lovel=1
offset=948
sample=4Trumpets_staccatissimo_PP_F#3_RR3.opus
</region>

<region>
hivel=127
key=E5
lovel=1
offset=477
sample=4Trumpets_staccatissimo_PP_E5_RR3.opus
</region>

<region>
hivel=127
key=E4
lovel=1
offset=260
sample=4Trumpets_staccatissimo_PP_E4_RR3.opus
</region>

<region>
hivel=127
key=D5
lovel=1
offset=294
sample=4Trumpets_staccatissimo_PP_D5_RR3.opus
</region>

<region>
hivel=127
key=D4
lovel=1
offset=454
sample=4Trumpets_staccatissimo_PP_D4_RR3.opus
</region>

<region>
hivel=127
key=D#5
lovel=1
offset=149
sample=4Trumpets_staccatissimo_PP_D#5_RR3.opus
</region>

<region>
hivel=127
key=D#4
lovel=1
sample=4Trumpets_staccatissimo_PP_D#4_RR3.opus
</region>

<region>
hivel=127
key=C6
lovel=1
offset=207
sample=4Trumpets_staccatissimo_PP_C6_RR3.opus
</region>

<region>
hivel=127
key=C5
lovel=1
sample=4Trumpets_staccatissimo_PP_C5_RR3.opus
</region>

<region>
hivel=127
key=C4
lovel=1
offset=375
sample=4Trumpets_staccatissimo_PP_C4_RR3.opus
</region>

<region>
hivel=127
key=C#5
lovel=1
offset=132
sample=4Trumpets_staccatissimo_PP_C#5_RR3.opus
</region>

<region>
hivel=127
key=C#4
lovel=1
offset=761
sample=4Trumpets_staccatissimo_PP_C#4_RR3.opus
</region>

<region>
hivel=127
key=B5
lovel=1
sample=4Trumpets_staccatissimo_PP_B5_RR3.opus
</region>

<region>
hivel=127
key=B4
lovel=1
offset=807
sample=4Trumpets_staccatissimo_PP_B4_RR3.opus
</region>

<region>
hivel=127
key=B3
lovel=1
offset=707
sample=4Trumpets_staccatissimo_PP_B3_RR3.opus
</region>

<region>
hivel=127
key=A5
lovel=1
offset=1097
sample=4Trumpets_staccatissimo_PP_A5_RR3.opus
</region>

<region>
hivel=127
key=A4
lovel=1
offset=68
sample=4Trumpets_staccatissimo_PP_A4_RR3.opus
</region>

<region>
hivel=127
key=A3
lovel=1
offset=263
sample=4Trumpets_staccatissimo_PP_A3_RR3.opus
</region>

<region>
hivel=127
key=A#5
lovel=1
sample=4Trumpets_staccatissimo_PP_A#5_RR3.opus
</region>

<region>
hivel=127
key=A#4
lovel=1
offset=176
sample=4Trumpets_staccatissimo_PP_A#4_RR3.opus
</region>

<region>
hivel=127
key=A#3
lovel=1
offset=7
sample=4Trumpets_staccatissimo_PP_A#3_RR3.opus
</region>
</group>

<group>
group_label=RR4_85-127
seq_length=8
seq_position=4
xf_cccurve=gain
xfin_hicc1=127
xfin_locc1=85
xfout_hicc1=127
xfout_locc1=127

<region>
hivel=127
key=G5
lovel=1
sample=4Trumpets_staccatissimo_FF_G5_RR4.opus
</region>

<region>
hivel=127
key=G4
lovel=1
offset=530
sample=4Trumpets_staccatissimo_FF_G4_RR4.opus
</region>

<region>
hivel=127
key=G3
lovel=1
offset=4
sample=4Trumpets_staccatissimo_FF_G3_RR4.opus
</region>

<region>
hivel=127
key=G#5
lovel=1
sample=4Trumpets_staccatissimo_FF_G#5_RR4.opus
</region>

<region>
hivel=127
key=G#4
lovel=1
sample=4Trumpets_staccatissimo_FF_G#4_RR4.opus
</region>

<region>
hivel=127
key=G#3
lovel=1
sample=4Trumpets_staccatissimo_FF_G#3_RR4.opus
</region>

<region>
hivel=127
key=F5
lovel=1
sample=4Trumpets_staccatissimo_FF_F5_RR4.opus
</region>

<region>
hivel=127
key=F4
lovel=1
offset=561
sample=4Trumpets_staccatissimo_FF_F4_RR4.opus
</region>

<region>
hivel=127
key=F#5
lovel=1
sample=4Trumpets_staccatissimo_FF_F#5_RR4.opus
</region>

<region>
hivel=127
key=F#4
lovel=1
sample=4Trumpets_staccatissimo_FF_F#4_RR4.opus
</region>

<region>
hivel=127
key=F#3
lovel=1
offset=784
sample=4Trumpets_staccatissimo_FF_F#3_RR4.opus
</region>

<region>
hivel=127
key=E5
lovel=1
offset=267
sample=4Trumpets_staccatissimo_FF_E5_RR4.opus
</region>

<region>
hivel=127
key=E4
lovel=1
offset=528
sample=4Trumpets_staccatissimo_FF_E4_RR4.opus
</region>

<region>
hivel=127
key=D5
lovel=1
sample=4Trumpets_staccatissimo_FF_D5_RR4.opus
</region>

<region>
hivel=127
key=D4
lovel=1
offset=472
sample=4Trumpets_staccatissimo_FF_D4_RR4.opus
</region>

<region>
hivel=127
key=D#5
lovel=1
offset=62
sample=4Trumpets_staccatissimo_FF_D#5_RR4.opus
</region>

<region>
hivel=127
key=D#4
lovel=1
offset=867
sample=4Trumpets_staccatissimo_FF_D#4_RR4.opus
</region>

<region>
hivel=127
key=C6
lovel=1
sample=4Trumpets_staccatissimo_FF_C6_RR4.opus
</region>

<region>
hivel=127
key=C5
lovel=1
sample=4Trumpets_staccatissimo_FF_C5_RR4.opus
</region>

<region>
hivel=127
key=C4
lovel=1
offset=355
sample=4Trumpets_staccatissimo_FF_C4_RR4.opus
</region>

<region>
hivel=127
key=C#5
lovel=1
sample=4Trumpets_staccatissimo_FF_C#5_RR4.opus
</region>

<region>
hivel=127
key=C#4
lovel=1
offset=280
sample=4Trumpets_staccatissimo_FF_C#4_RR4.opus
</region>

<region>
hivel=127
key=B5
lovel=1
sample=4Trumpets_staccatissimo_FF_B5_RR4.opus
</region>

<region>
hivel=127
key=B4
lovel=1
sample=4Trumpets_staccatissimo_FF_B4_RR4.opus
</region>

<region>
hivel=127
key=B3
lovel=1
offset=104
sample=4Trumpets_staccatissimo_FF_B3_RR4.opus
</region>

<region>
hivel=127
key=A5
lovel=1
offset=688
sample=4Trumpets_staccatissimo_FF_A5_RR4.opus
</region>

<region>
hivel=127
key=A4
lovel=1
sample=4Trumpets_staccatissimo_FF_A4_RR4.opus
</region>

<region>
hivel=127
key=A3
lovel=1
sample=4Trumpets_staccatissimo_FF_A3_RR4.opus
</region>

<region>
hivel=127
key=A#5
lovel=1
sample=4Trumpets_staccatissimo_FF_A#5_RR4.opus
</region>

<region>
hivel=127
key=A#4
lovel=1
sample=4Trumpets_staccatissimo_FF_A#4_RR4.opus
</region>

<region>
hivel=127
key=A#3
lovel=1
offset=87
sample=4Trumpets_staccatissimo_FF_A#3_RR4.opus
</region>
</group>

<group>
group_label=RR4_43-84
seq_length=8
seq_position=4
xf_cccurve=gain
xfin_hicc1=84
xfin_locc1=43
xfout_hicc1=125
xfout_locc1=84

<region>
hivel=127
key=G5
lovel=1
offset=73
sample=4Trumpets_staccatissimo_MF_G5_RR4.opus
</region>

<region>
hivel=127
key=G4
lovel=1
offset=632
sample=4Trumpets_staccatissimo_MF_G4_RR4.opus
</region>

<region>
hivel=127
key=G3
lovel=1
offset=380
sample=4Trumpets_staccatissimo_MF_G3_RR4.opus
</region>

<region>
hivel=127
key=G#5
lovel=1
offset=50
sample=4Trumpets_staccatissimo_MF_G#5_RR4.opus
</region>

<region>
hivel=127
key=G#4
lovel=1
offset=697
sample=4Trumpets_staccatissimo_MF_G#4_RR4.opus
</region>

<region>
hivel=127
key=G#3
lovel=1
offset=618
sample=4Trumpets_staccatissimo_MF_G#3_RR4.opus
</region>

<region>
hivel=127
key=F5
lovel=1
offset=281
sample=4Trumpets_staccatissimo_MF_F5_RR4.opus
</region>

<region>
hivel=127
key=F4
lovel=1
sample=4Trumpets_staccatissimo_MF_F4_RR4.opus
</region>

<region>
hivel=127
key=F#5
lovel=1
offset=107
sample=4Trumpets_staccatissimo_MF_F#5_RR4.opus
</region>

<region>
hivel=127
key=F#4
lovel=1
offset=405
sample=4Trumpets_staccatissimo_MF_F#4_RR4.opus
</region>

<region>
hivel=127
key=F#3
lovel=1
sample=4Trumpets_staccatissimo_MF_F#3_RR4.opus
</region>

<region>
hivel=127
key=E5
lovel=1
offset=867
sample=4Trumpets_staccatissimo_MF_E5_RR4.opus
</region>

<region>
hivel=127
key=E4
lovel=1
offset=142
sample=4Trumpets_staccatissimo_MF_E4_RR4.opus
</region>

<region>
hivel=127
key=D5
lovel=1
sample=4Trumpets_staccatissimo_MF_D5_RR4.opus
</region>

<region>
hivel=127
key=D4
lovel=1
offset=651
sample=4Trumpets_staccatissimo_MF_D4_RR4.opus
</region>

<region>
hivel=127
key=D#5
lovel=1
offset=238
sample=4Trumpets_staccatissimo_MF_D#5_RR4.opus
</region>

<region>
hivel=127
key=D#4
lovel=1
offset=415
sample=4Trumpets_staccatissimo_MF_D#4_RR4.opus
</region>

<region>
hivel=127
key=C6
lovel=1
sample=4Trumpets_staccatissimo_MF_C6_RR4.opus
</region>

<region>
hivel=127
key=C5
lovel=1
offset=959
sample=4Trumpets_staccatissimo_MF_C5_RR4.opus
</region>

<region>
hivel=127
key=C4
lovel=1
offset=382
sample=4Trumpets_staccatissimo_MF_C4_RR4.opus
</region>

<region>
hivel=127
key=C#5
lovel=1
offset=363
sample=4Trumpets_staccatissimo_MF_C#5_RR4.opus
</region>

<region>
hivel=127
key=C#4
lovel=1
offset=1332
sample=4Trumpets_staccatissimo_MF_C#4_RR4.opus
</region>

<region>
hivel=127
key=B5
lovel=1
offset=11
sample=4Trumpets_staccatissimo_MF_B5_RR4.opus
</region>

<region>
hivel=127
key=B4
lovel=1
offset=295
sample=4Trumpets_staccatissimo_MF_B4_RR4.opus
</region>

<region>
hivel=127
key=B3
lovel=1
offset=326
sample=4Trumpets_staccatissimo_MF_B3_RR4.opus
</region>

<region>
hivel=127
key=A5
lovel=1
sample=4Trumpets_staccatissimo_MF_A5_RR4.opus
</region>

<region>
hivel=127
key=A4
lovel=1
offset=242
sample=4Trumpets_staccatissimo_MF_A4_RR4.opus
</region>

<region>
hivel=127
key=A3
lovel=1
offset=556
sample=4Trumpets_staccatissimo_MF_A3_RR4.opus
</region>

<region>
hivel=127
key=A#5
lovel=1
sample=4Trumpets_staccatissimo_MF_A#5_RR4.opus
</region>

<region>
hivel=127
key=A#4
lovel=1
offset=279
sample=4Trumpets_staccatissimo_MF_A#4_RR4.opus
</region>

<region>
hivel=127
key=A#3
lovel=1
offset=92
sample=4Trumpets_staccatissimo_MF_A#3_RR4.opus
</region>
</group>

<group>
group_label=RR4_0-42
seq_length=8
seq_position=4
xf_cccurve=gain
xfin_hicc1=42
xfout_hicc1=84
xfout_locc1=42

<region>
hivel=127
key=G5
lovel=1
sample=4Trumpets_staccatissimo_PP_G5_RR4.opus
</region>

<region>
hivel=127
key=G4
lovel=1
sample=4Trumpets_staccatissimo_PP_G4_RR4.opus
</region>

<region>
hivel=127
key=G3
lovel=1
offset=993
sample=4Trumpets_staccatissimo_PP_G3_RR4.opus
</region>

<region>
hivel=127
key=G#5
lovel=1
offset=661
sample=4Trumpets_staccatissimo_PP_G#5_RR4.opus
</region>

<region>
hivel=127
key=G#4
lovel=1
sample=4Trumpets_staccatissimo_PP_G#4_RR4.opus
</region>

<region>
hivel=127
key=G#3
lovel=1
offset=40
sample=4Trumpets_staccatissimo_PP_G#3_RR4.opus
</region>

<region>
hivel=127
key=F5
lovel=1
sample=4Trumpets_staccatissimo_PP_F5_RR4.opus
</region>

<region>
hivel=127
key=F4
lovel=1
offset=46
sample=4Trumpets_staccatissimo_PP_F4_RR4.opus
</region>

<region>
hivel=127
key=F#5
lovel=1
offset=100
sample=4Trumpets_staccatissimo_PP_F#5_RR4.opus
</region>

<region>
hivel=127
key=F#4
lovel=1
sample=4Trumpets_staccatissimo_PP_F#4_RR4.opus
</region>

<region>
hivel=127
key=F#3
lovel=1
offset=1097
sample=4Trumpets_staccatissimo_PP_F#3_RR4.opus
</region>

<region>
hivel=127
key=E5
lovel=1
offset=549
sample=4Trumpets_staccatissimo_PP_E5_RR4.opus
</region>

<region>
hivel=127
key=E4
lovel=1
offset=203
sample=4Trumpets_staccatissimo_PP_E4_RR4.opus
</region>

<region>
hivel=127
key=D5
lovel=1
sample=4Trumpets_staccatissimo_PP_D5_RR4.opus
</region>

<region>
hivel=127
key=D4
lovel=1
offset=674
sample=4Trumpets_staccatissimo_PP_D4_RR4.opus
</region>

<region>
hivel=127
key=D#5
lovel=1
offset=307
sample=4Trumpets_staccatissimo_PP_D#5_RR4.opus
</region>

<region>
hivel=127
key=D#4
lovel=1
sample=4Trumpets_staccatissimo_PP_D#4_RR4.opus
</region>

<region>
hivel=127
key=C6
lovel=1
sample=4Trumpets_staccatissimo_PP_C6_RR4.opus
</region>

<region>
hivel=127
key=C5
lovel=1
offset=334
sample=4Trumpets_staccatissimo_PP_C5_RR4.opus
</region>

<region>
hivel=127
key=C4
lovel=1
offset=98
sample=4Trumpets_staccatissimo_PP_C4_RR4.opus
</region>

<region>
hivel=127
key=C#5
lovel=1
offset=398
sample=4Trumpets_staccatissimo_PP_C#5_RR4.opus
</region>

<region>
hivel=127
key=C#4
lovel=1
offset=1306
sample=4Trumpets_staccatissimo_PP_C#4_RR4.opus
</region>

<region>
hivel=127
key=B5
lovel=1
offset=429
sample=4Trumpets_staccatissimo_PP_B5_RR4.opus
</region>

<region>
hivel=127
key=B4
lovel=1
offset=601
sample=4Trumpets_staccatissimo_PP_B4_RR4.opus
</region>

<region>
hivel=127
key=B3
lovel=1
offset=284
sample=4Trumpets_staccatissimo_PP_B3_RR4.opus
</region>

<region>
hivel=127
key=A5
lovel=1
sample=4Trumpets_staccatissimo_PP_A5_RR4.opus
</region>

<region>
hivel=127
key=A4
lovel=1
offset=64
sample=4Trumpets_staccatissimo_PP_A4_RR4.opus
</region>

<region>
hivel=127
key=A3
lovel=1
offset=1566
sample=4Trumpets_staccatissimo_PP_A3_RR4.opus
</region>

<region>
hivel=127
key=A#5
lovel=1
offset=194
sample=4Trumpets_staccatissimo_PP_A#5_RR4.opus
</region>

<region>
hivel=127
key=A#4
lovel=1
sample=4Trumpets_staccatissimo_PP_A#4_RR4.opus
</region>

<region>
hivel=127
key=A#3
lovel=1
offset=176
sample=4Trumpets_staccatissimo_PP_A#3_RR4.opus
</region>
</group>

<group>
group_label=RR5_85-127
seq_length=8
seq_position=5
xf_cccurve=gain
xfin_hicc1=127
xfin_locc1=85
xfout_hicc1=127
xfout_locc1=127

<region>
hivel=127
key=G5
lovel=1
offset=383
sample=4Trumpets_staccatissimo_FF_G5_RR5.opus
</region>

<region>
hivel=127
key=G4
lovel=1
offset=288
sample=4Trumpets_staccatissimo_FF_G4_RR5.opus
</region>

<region>
hivel=127
key=G3
lovel=1
offset=479
sample=4Trumpets_staccatissimo_FF_G3_RR5.opus
</region>

<region>
hivel=127
key=G#5
lovel=1
offset=45
sample=4Trumpets_staccatissimo_FF_G#5_RR5.opus
</region>

<region>
hivel=127
key=G#4
lovel=1
offset=156
sample=4Trumpets_staccatissimo_FF_G#4_RR5.opus
</region>

<region>
hivel=127
key=G#3
lovel=1
sample=4Trumpets_staccatissimo_FF_G#3_RR5.opus
</region>

<region>
hivel=127
key=F5
lovel=1
offset=83
sample=4Trumpets_staccatissimo_FF_F5_RR5.opus
</region>

<region>
hivel=127
key=F4
lovel=1
offset=35
sample=4Trumpets_staccatissimo_FF_F4_RR5.opus
</region>

<region>
hivel=127
key=F#5
lovel=1
offset=222
sample=4Trumpets_staccatissimo_FF_F#5_RR5.opus
</region>

<region>
hivel=127
key=F#4
lovel=1
sample=4Trumpets_staccatissimo_FF_F#4_RR5.opus
</region>

<region>
hivel=127
key=F#3
lovel=1
sample=4Trumpets_staccatissimo_FF_F#3_RR5.opus
</region>

<region>
hivel=127
key=E5
lovel=1
sample=4Trumpets_staccatissimo_FF_E5_RR5.opus
</region>

<region>
hivel=127
key=E4
lovel=1
sample=4Trumpets_staccatissimo_FF_E4_RR5.opus
</region>

<region>
hivel=127
key=D5
lovel=1
sample=4Trumpets_staccatissimo_FF_D5_RR5.opus
</region>

<region>
hivel=127
key=D4
lovel=1
sample=4Trumpets_staccatissimo_FF_D4_RR5.opus
</region>

<region>
hivel=127
key=D#5
lovel=1
sample=4Trumpets_staccatissimo_FF_D#5_RR5.opus
</region>

<region>
hivel=127
key=D#4
lovel=1
sample=4Trumpets_staccatissimo_FF_D#4_RR5.opus
</region>

<region>
hivel=127
key=C6
lovel=1
offset=267
sample=4Trumpets_staccatissimo_FF_C6_RR5.opus
</region>

<region>
hivel=127
key=C5
lovel=1
sample=4Trumpets_staccatissimo_FF_C5_RR5.opus
</region>

<region>
hivel=127
key=C4
lovel=1
offset=690
sample=4Trumpets_staccatissimo_FF_C4_RR5.opus
</region>

<region>
hivel=127
key=C#5
lovel=1
sample=4Trumpets_staccatissimo_FF_C#5_RR5.opus
</region>

<region>
hivel=127
key=C#4
lovel=1
offset=262
sample=4Trumpets_staccatissimo_FF_C#4_RR5.opus
</region>

<region>
hivel=127
key=B5
lovel=1
offset=385
sample=4Trumpets_staccatissimo_FF_B5_RR5.opus
</region>

<region>
hivel=127
key=B4
lovel=1
offset=305
sample=4Trumpets_staccatissimo_FF_B4_RR5.opus
</region>

<region>
hivel=127
key=B3
lovel=1
sample=4Trumpets_staccatissimo_FF_B3_RR5.opus
</region>

<region>
hivel=127
key=A5
lovel=1
sample=4Trumpets_staccatissimo_FF_A5_RR5.opus
</region>

<region>
hivel=127
key=A4
lovel=1
sample=4Trumpets_staccatissimo_FF_A4_RR5.opus
</region>

<region>
hivel=127
key=A3
lovel=1
sample=4Trumpets_staccatissimo_FF_A3_RR5.opus
</region>

<region>
hivel=127
key=A#5
lovel=1
sample=4Trumpets_staccatissimo_FF_A#5_RR5.opus
</region>

<region>
hivel=127
key=A#4
lovel=1
sample=4Trumpets_staccatissimo_FF_A#4_RR5.opus
</region>

<region>
hivel=127
key=A#3
lovel=1
offset=266
sample=4Trumpets_staccatissimo_FF_A#3_RR5.opus
</region>
</group>

<group>
group_label=RR5_43-84
seq_length=8
seq_position=5
xf_cccurve=gain
xfin_hicc1=84
xfin_locc1=43
xfout_hicc1=125
xfout_locc1=84

<region>
hivel=127
key=G5
lovel=1
sample=4Trumpets_staccatissimo_MF_G5_RR5.opus
</region>

<region>
hivel=127
key=G4
lovel=1
offset=865
sample=4Trumpets_staccatissimo_MF_G4_RR5.opus
</region>

<region>
hivel=127
key=G3
lovel=1
offset=373
sample=4Trumpets_staccatissimo_MF_G3_RR5.opus
</region>

<region>
hivel=127
key=G#5
lovel=1
offset=193
sample=4Trumpets_staccatissimo_MF_G#5_RR5.opus
</region>

<region>
hivel=127
key=G#4
lovel=1
offset=519
sample=4Trumpets_staccatissimo_MF_G#4_RR5.opus
</region>

<region>
hivel=127
key=G#3
lovel=1
offset=1071
sample=4Trumpets_staccatissimo_MF_G#3_RR5.opus
</region>

<region>
hivel=127
key=F5
lovel=1
offset=611
sample=4Trumpets_staccatissimo_MF_F5_RR5.opus
</region>

<region>
hivel=127
key=F4
lovel=1
sample=4Trumpets_staccatissimo_MF_F4_RR5.opus
</region>

<region>
hivel=127
key=F#5
lovel=1
sample=4Trumpets_staccatissimo_MF_F#5_RR5.opus
</region>

<region>
hivel=127
key=F#4
lovel=1
offset=187
sample=4Trumpets_staccatissimo_MF_F#4_RR5.opus
</region>

<region>
hivel=127
key=F#3
lovel=1
offset=574
sample=4Trumpets_staccatissimo_MF_F#3_RR5.opus
</region>

<region>
hivel=127
key=E5
lovel=1
offset=1171
sample=4Trumpets_staccatissimo_MF_E5_RR5.opus
</region>

<region>
hivel=127
key=E4
lovel=1
sample=4Trumpets_staccatissimo_MF_E4_RR5.opus
</region>

<region>
hivel=127
key=D5
lovel=1
offset=81
sample=4Trumpets_staccatissimo_MF_D5_RR5.opus
</region>

<region>
hivel=127
key=D4
lovel=1
offset=90
sample=4Trumpets_staccatissimo_MF_D4_RR5.opus
</region>

<region>
hivel=127
key=D#5
lovel=1
offset=64
sample=4Trumpets_staccatissimo_MF_D#5_RR5.opus
</region>

<region>
hivel=127
key=D#4
lovel=1
offset=120
sample=4Trumpets_staccatissimo_MF_D#4_RR5.opus
</region>

<region>
hivel=127
key=C6
lovel=1
offset=201
sample=4Trumpets_staccatissimo_MF_C6_RR5.opus
</region>

<region>
hivel=127
key=C5
lovel=1
offset=457
sample=4Trumpets_staccatissimo_MF_C5_RR5.opus
</region>

<region>
hivel=127
key=C4
lovel=1
sample=4Trumpets_staccatissimo_MF_C4_RR5.opus
</region>

<region>
hivel=127
key=C#5
lovel=1
sample=4Trumpets_staccatissimo_MF_C#5_RR5.opus
</region>

<region>
hivel=127
key=C#4
lovel=1
offset=963
sample=4Trumpets_staccatissimo_MF_C#4_RR5.opus
</region>

<region>
hivel=127
key=B5
lovel=1
offset=136
sample=4Trumpets_staccatissimo_MF_B5_RR5.opus
</region>

<region>
hivel=127
key=B4
lovel=1
offset=112
sample=4Trumpets_staccatissimo_MF_B4_RR5.opus
</region>

<region>
hivel=127
key=B3
lovel=1
offset=314
sample=4Trumpets_staccatissimo_MF_B3_RR5.opus
</region>

<region>
hivel=127
key=A5
lovel=1
sample=4Trumpets_staccatissimo_MF_A5_RR5.opus
</region>

<region>
hivel=127
key=A4
lovel=1
sample=4Trumpets_staccatissimo_MF_A4_RR5.opus
</region>

<region>
hivel=127
key=A3
lovel=1
offset=411
sample=4Trumpets_staccatissimo_MF_A3_RR5.opus
</region>

<region>
hivel=127
key=A#5
lovel=1
sample=4Trumpets_staccatissimo_MF_A#5_RR5.opus
</region>

<region>
hivel=127
key=A#4
lovel=1
offset=44
sample=4Trumpets_staccatissimo_MF_A#4_RR5.opus
</region>

<region>
hivel=127
key=A#3
lovel=1
offset=1766
sample=4Trumpets_staccatissimo_MF_A#3_RR5.opus
</region>
</group>

<group>
group_label=RR5_0-42
seq_length=8
seq_position=5
xf_cccurve=gain
xfin_hicc1=42
xfout_hicc1=84
xfout_locc1=42

<region>
hivel=127
key=G5
lovel=1
sample=4Trumpets_staccatissimo_PP_G5_RR5.opus
</region>

<region>
hivel=127
key=G4
lovel=1
offset=133
sample=4Trumpets_staccatissimo_PP_G4_RR5.opus
</region>

<region>
hivel=127
key=G3
lovel=1
offset=347
sample=4Trumpets_staccatissimo_PP_G3_RR5.opus
</region>

<region>
hivel=127
key=G#5
lovel=1
offset=789
sample=4Trumpets_staccatissimo_PP_G#5_RR5.opus
</region>

<region>
hivel=127
key=G#4
lovel=1
offset=223
sample=4Trumpets_staccatissimo_PP_G#4_RR5.opus
</region>

<region>
hivel=127
key=G#3
lovel=1
offset=61
sample=4Trumpets_staccatissimo_PP_G#3_RR5.opus
</region>

<region>
hivel=127
key=F5
lovel=1
offset=356
sample=4Trumpets_staccatissimo_PP_F5_RR5.opus
</region>

<region>
hivel=127
key=F4
lovel=1
offset=475
sample=4Trumpets_staccatissimo_PP_F4_RR5.opus
</region>

<region>
hivel=127
key=F#5
lovel=1
offset=831
sample=4Trumpets_staccatissimo_PP_F#5_RR5.opus
</region>

<region>
hivel=127
key=F#4
lovel=1
offset=480
sample=4Trumpets_staccatissimo_PP_F#4_RR5.opus
</region>

<region>
hivel=127
key=F#3
lovel=1
offset=1003
sample=4Trumpets_staccatissimo_PP_F#3_RR5.opus
</region>

<region>
hivel=127
key=E5
lovel=1
sample=4Trumpets_staccatissimo_PP_E5_RR5.opus
</region>

<region>
hivel=127
key=E4
lovel=1
offset=108
sample=4Trumpets_staccatissimo_PP_E4_RR5.opus
</region>

<region>
hivel=127
key=D5
lovel=1
offset=140
sample=4Trumpets_staccatissimo_PP_D5_RR5.opus
</region>

<region>
hivel=127
key=D4
lovel=1
offset=314
sample=4Trumpets_staccatissimo_PP_D4_RR5.opus
</region>

<region>
hivel=127
key=D#5
lovel=1
offset=379
sample=4Trumpets_staccatissimo_PP_D#5_RR5.opus
</region>

<region>
hivel=127
key=D#4
lovel=1
sample=4Trumpets_staccatissimo_PP_D#4_RR5.opus
</region>

<region>
hivel=127
key=C6
lovel=1
sample=4Trumpets_staccatissimo_PP_C6_RR5.opus
</region>

<region>
hivel=127
key=C5
lovel=1
offset=322
sample=4Trumpets_staccatissimo_PP_C5_RR5.opus
</region>

<region>
hivel=127
key=C4
lovel=1
offset=279
sample=4Trumpets_staccatissimo_PP_C4_RR5.opus
</region>

<region>
hivel=127
key=C#5
lovel=1
sample=4Trumpets_staccatissimo_PP_C#5_RR5.opus
</region>

<region>
hivel=127
key=C#4
lovel=1
offset=472
sample=4Trumpets_staccatissimo_PP_C#4_RR5.opus
</region>

<region>
hivel=127
key=B5
lovel=1
offset=825
sample=4Trumpets_staccatissimo_PP_B5_RR5.opus
</region>

<region>
hivel=127
key=B4
lovel=1
offset=321
sample=4Trumpets_staccatissimo_PP_B4_RR5.opus
</region>

<region>
hivel=127
key=B3
lovel=1
offset=591
sample=4Trumpets_staccatissimo_PP_B3_RR5.opus
</region>

<region>
hivel=127
key=A5
lovel=1
sample=4Trumpets_staccatissimo_PP_A5_RR5.opus
</region>

<region>
hivel=127
key=A4
lovel=1
offset=396
sample=4Trumpets_staccatissimo_PP_A4_RR5.opus
</region>

<region>
hivel=127
key=A3
lovel=1
sample=4Trumpets_staccatissimo_PP_A3_RR5.opus
</region>

<region>
hivel=127
key=A#5
lovel=1
offset=611
sample=4Trumpets_staccatissimo_PP_A#5_RR5.opus
</region>

<region>
hivel=127
key=A#4
lovel=1
offset=151
sample=4Trumpets_staccatissimo_PP_A#4_RR5.opus
</region>

<region>
hivel=127
key=A#3
lovel=1
sample=4Trumpets_staccatissimo_PP_A#3_RR5.opus
</region>
</group>

<group>
group_label=RR6_85-127
seq_length=8
seq_position=6
xf_cccurve=gain
xfin_hicc1=127
xfin_locc1=85
xfout_hicc1=127
xfout_locc1=127

<region>
hivel=127
key=G5
lovel=1
offset=137
sample=4Trumpets_staccatissimo_FF_G5_RR6.opus
</region>

<region>
hivel=127
key=G4
lovel=1
sample=4Trumpets_staccatissimo_FF_G4_RR6.opus
</region>

<region>
hivel=127
key=G3
lovel=1
offset=1008
sample=4Trumpets_staccatissimo_FF_G3_RR6.opus
</region>

<region>
hivel=127
key=G#5
lovel=1
offset=515
sample=4Trumpets_staccatissimo_FF_G#5_RR6.opus
</region>

<region>
hivel=127
key=G#4
lovel=1
sample=4Trumpets_staccatissimo_FF_G#4_RR6.opus
</region>

<region>
hivel=127
key=G#3
lovel=1
offset=274
sample=4Trumpets_staccatissimo_FF_G#3_RR6.opus
</region>

<region>
hivel=127
key=F5
lovel=1
offset=759
sample=4Trumpets_staccatissimo_FF_F5_RR6.opus
</region>

<region>
hivel=127
key=F4
lovel=1
offset=51
sample=4Trumpets_staccatissimo_FF_F4_RR6.opus
</region>

<region>
hivel=127
key=F#5
lovel=1
sample=4Trumpets_staccatissimo_FF_F#5_RR6.opus
</region>

<region>
hivel=127
key=F#4
lovel=1
offset=1076
sample=4Trumpets_staccatissimo_FF_F#4_RR6.opus
</region>

<region>
hivel=127
key=F#3
lovel=1
sample=4Trumpets_staccatissimo_FF_F#3_RR6.opus
</region>

<region>
hivel=127
key=E5
lovel=1
offset=60
sample=4Trumpets_staccatissimo_FF_E5_RR6.opus
</region>

<region>
hivel=127
key=E4
lovel=1
offset=102
sample=4Trumpets_staccatissimo_FF_E4_RR6.opus
</region>

<region>
hivel=127
key=D5
lovel=1
offset=465
sample=4Trumpets_staccatissimo_FF_D5_RR6.opus
</region>

<region>
hivel=127
key=D4
lovel=1
sample=4Trumpets_staccatissimo_FF_D4_RR6.opus
</region>

<region>
hivel=127
key=D#5
lovel=1
sample=4Trumpets_staccatissimo_FF_D#5_RR6.opus
</region>

<region>
hivel=127
key=D#4
lovel=1
sample=4Trumpets_staccatissimo_FF_D#4_RR6.opus
</region>

<region>
hivel=127
key=C6
lovel=1
offset=61
sample=4Trumpets_staccatissimo_FF_C6_RR6.opus
</region>

<region>
hivel=127
key=C5
lovel=1
offset=1026
sample=4Trumpets_staccatissimo_FF_C5_RR6.opus
</region>

<region>
hivel=127
key=C4
lovel=1
offset=629
sample=4Trumpets_staccatissimo_FF_C4_RR6.opus
</region>

<region>
hivel=127
key=C#5
lovel=1
sample=4Trumpets_staccatissimo_FF_C#5_RR6.opus
</region>

<region>
hivel=127
key=C#4
lovel=1
offset=581
sample=4Trumpets_staccatissimo_FF_C#4_RR6.opus
</region>

<region>
hivel=127
key=B5
lovel=1
sample=4Trumpets_staccatissimo_FF_B5_RR6.opus
</region>

<region>
hivel=127
key=B4
lovel=1
sample=4Trumpets_staccatissimo_FF_B4_RR6.opus
</region>

<region>
hivel=127
key=B3
lovel=1
sample=4Trumpets_staccatissimo_FF_B3_RR6.opus
</region>

<region>
hivel=127
key=A5
lovel=1
sample=4Trumpets_staccatissimo_FF_A5_RR6.opus
</region>

<region>
hivel=127
key=A4
lovel=1
offset=1082
sample=4Trumpets_staccatissimo_FF_A4_RR6.opus
</region>

<region>
hivel=127
key=A3
lovel=1
sample=4Trumpets_staccatissimo_FF_A3_RR6.opus
</region>

<region>
hivel=127
key=A#5
lovel=1
sample=4Trumpets_staccatissimo_FF_A#5_RR6.opus
</region>

<region>
hivel=127
key=A#4
lovel=1
offset=606
sample=4Trumpets_staccatissimo_FF_A#4_RR6.opus
</region>

<region>
hivel=127
key=A#3
lovel=1
offset=136
sample=4Trumpets_staccatissimo_FF_A#3_RR6.opus
</region>
</group>

<group>
group_label=RR6_43-84
seq_length=8
seq_position=6
xf_cccurve=gain
xfin_hicc1=84
xfin_locc1=43
xfout_hicc1=125
xfout_locc1=84

<region>
hivel=127
key=G5
lovel=1
offset=121
sample=4Trumpets_staccatissimo_MF_G5_RR6.opus
</region>

<region>
hivel=127
key=G4
lovel=1
offset=338
sample=4Trumpets_staccatissimo_MF_G4_RR6.opus
</region>

<region>
hivel=127
key=G3
lovel=1
offset=251
sample=4Trumpets_staccatissimo_MF_G3_RR6.opus
</region>

<region>
hivel=127
key=G#5
lovel=1
sample=4Trumpets_staccatissimo_MF_G#5_RR6.opus
</region>

<region>
hivel=127
key=G#4
lovel=1
sample=4Trumpets_staccatissimo_MF_G#4_RR6.opus
</region>

<region>
hivel=127
key=G#3
lovel=1
offset=219
sample=4Trumpets_staccatissimo_MF_G#3_RR6.opus
</region>

<region>
hivel=127
key=F5
lovel=1
offset=743
sample=4Trumpets_staccatissimo_MF_F5_RR6.opus
</region>

<region>
hivel=127
key=F4
lovel=1
sample=4Trumpets_staccatissimo_MF_F4_RR6.opus
</region>

<region>
hivel=127
key=F#5
lovel=1
offset=24
sample=4Trumpets_staccatissimo_MF_F#5_RR6.opus
</region>

<region>
hivel=127
key=F#4
lovel=1
offset=57
sample=4Trumpets_staccatissimo_MF_F#4_RR6.opus
</region>

<region>
hivel=127
key=F#3
lovel=1
offset=284
sample=4Trumpets_staccatissimo_MF_F#3_RR6.opus
</region>

<region>
hivel=127
key=E5
lovel=1
offset=1475
sample=4Trumpets_staccatissimo_MF_E5_RR6.opus
</region>

<region>
hivel=127
key=E4
lovel=1
sample=4Trumpets_staccatissimo_MF_E4_RR6.opus
</region>

<region>
hivel=127
key=D5
lovel=1
offset=21
sample=4Trumpets_staccatissimo_MF_D5_RR6.opus
</region>

<region>
hivel=127
key=D4
lovel=1
offset=2861
sample=4Trumpets_staccatissimo_MF_D4_RR6.opus
</region>

<region>
hivel=127
key=D#5
lovel=1
offset=488
sample=4Trumpets_staccatissimo_MF_D#5_RR6.opus
</region>

<region>
hivel=127
key=D#4
lovel=1
offset=498
sample=4Trumpets_staccatissimo_MF_D#4_RR6.opus
</region>

<region>
hivel=127
key=C6
lovel=1
sample=4Trumpets_staccatissimo_MF_C6_RR6.opus
</region>

<region>
hivel=127
key=C5
lovel=1
offset=66
sample=4Trumpets_staccatissimo_MF_C5_RR6.opus
</region>

<region>
hivel=127
key=C4
lovel=1
offset=276
sample=4Trumpets_staccatissimo_MF_C4_RR6.opus
</region>

<region>
hivel=127
key=C#5
lovel=1
sample=4Trumpets_staccatissimo_MF_C#5_RR6.opus
</region>

<region>
hivel=127
key=C#4
lovel=1
offset=728
sample=4Trumpets_staccatissimo_MF_C#4_RR6.opus
</region>

<region>
hivel=127
key=B5
lovel=1
offset=391
sample=4Trumpets_staccatissimo_MF_B5_RR6.opus
</region>

<region>
hivel=127
key=B4
lovel=1
offset=485
sample=4Trumpets_staccatissimo_MF_B4_RR6.opus
</region>

<region>
hivel=127
key=B3
lovel=1
offset=441
sample=4Trumpets_staccatissimo_MF_B3_RR6.opus
</region>

<region>
hivel=127
key=A5
lovel=1
offset=961
sample=4Trumpets_staccatissimo_MF_A5_RR6.opus
</region>

<region>
hivel=127
key=A4
lovel=1
offset=412
sample=4Trumpets_staccatissimo_MF_A4_RR6.opus
</region>

<region>
hivel=127
key=A3
lovel=1
offset=146
sample=4Trumpets_staccatissimo_MF_A3_RR6.opus
</region>

<region>
hivel=127
key=A#5
lovel=1
sample=4Trumpets_staccatissimo_MF_A#5_RR6.opus
</region>

<region>
hivel=127
key=A#4
lovel=1
sample=4Trumpets_staccatissimo_MF_A#4_RR6.opus
</region>

<region>
hivel=127
key=A#3
lovel=1
offset=183
sample=4Trumpets_staccatissimo_MF_A#3_RR6.opus
</region>
</group>

<group>
group_label=RR6_0-42
seq_length=8
seq_position=6
xf_cccurve=gain
xfin_hicc1=42
xfout_hicc1=84
xfout_locc1=42

<region>
hivel=127
key=G5
lovel=1
offset=18
sample=4Trumpets_staccatissimo_PP_G5_RR6.opus
</region>

<region>
hivel=127
key=G4
lovel=1
offset=4
sample=4Trumpets_staccatissimo_PP_G4_RR6.opus
</region>

<region>
hivel=127
key=G3
lovel=1
offset=449
sample=4Trumpets_staccatissimo_PP_G3_RR6.opus
</region>

<region>
hivel=127
key=G#5
lovel=1
offset=333
sample=4Trumpets_staccatissimo_PP_G#5_RR6.opus
</region>

<region>
hivel=127
key=G#4
lovel=1
sample=4Trumpets_staccatissimo_PP_G#4_RR6.opus
</region>

<region>
hivel=127
key=G#3
lovel=1
offset=395
sample=4Trumpets_staccatissimo_PP_G#3_RR6.opus
</region>

<region>
hivel=127
key=F5
lovel=1
sample=4Trumpets_staccatissimo_PP_F5_RR6.opus
</region>

<region>
hivel=127
key=F4
lovel=1
sample=4Trumpets_staccatissimo_PP_F4_RR6.opus
</region>

<region>
hivel=127
key=F#5
lovel=1
sample=4Trumpets_staccatissimo_PP_F#5_RR6.opus
</region>

<region>
hivel=127
key=F#4
lovel=1
sample=4Trumpets_staccatissimo_PP_F#4_RR6.opus
</region>

<region>
hivel=127
key=F#3
lovel=1
offset=438
sample=4Trumpets_staccatissimo_PP_F#3_RR6.opus
</region>

<region>
hivel=127
key=E5
lovel=1
sample=4Trumpets_staccatissimo_PP_E5_RR6.opus
</region>

<region>
hivel=127
key=E4
lovel=1
offset=261
sample=4Trumpets_staccatissimo_PP_E4_RR6.opus
</region>

<region>
hivel=127
key=D5
lovel=1
offset=347
sample=4Trumpets_staccatissimo_PP_D5_RR6.opus
</region>

<region>
hivel=127
key=D4
lovel=1
offset=480
sample=4Trumpets_staccatissimo_PP_D4_RR6.opus
</region>

<region>
hivel=127
key=D#5
lovel=1
offset=634
sample=4Trumpets_staccatissimo_PP_D#5_RR6.opus
</region>

<region>
hivel=127
key=D#4
lovel=1
offset=339
sample=4Trumpets_staccatissimo_PP_D#4_RR6.opus
</region>

<region>
hivel=127
key=C6
lovel=1
sample=4Trumpets_staccatissimo_PP_C6_RR6.opus
</region>

<region>
hivel=127
key=C5
lovel=1
sample=4Trumpets_staccatissimo_PP_C5_RR6.opus
</region>

<region>
hivel=127
key=C4
lovel=1
offset=918
sample=4Trumpets_staccatissimo_PP_C4_RR6.opus
</region>

<region>
hivel=127
key=C#5
lovel=1
offset=988
sample=4Trumpets_staccatissimo_PP_C#5_RR6.opus
</region>

<region>
hivel=127
key=C#4
lovel=1
offset=476
sample=4Trumpets_staccatissimo_PP_C#4_RR6.opus
</region>

<region>
hivel=127
key=B5
lovel=1
sample=4Trumpets_staccatissimo_PP_B5_RR6.opus
</region>

<region>
hivel=127
key=B4
lovel=1
offset=85
sample=4Trumpets_staccatissimo_PP_B4_RR6.opus
</region>

<region>
hivel=127
key=B3
lovel=1
offset=432
sample=4Trumpets_staccatissimo_PP_B3_RR6.opus
</region>

<region>
hivel=127
key=A5
lovel=1
sample=4Trumpets_staccatissimo_PP_A5_RR6.opus
</region>

<region>
hivel=127
key=A4
lovel=1
sample=4Trumpets_staccatissimo_PP_A4_RR6.opus
</region>

<region>
hivel=127
key=A3
lovel=1
sample=4Trumpets_staccatissimo_PP_A3_RR6.opus
</region>

<region>
hivel=127
key=A#5
lovel=1
sample=4Trumpets_staccatissimo_PP_A#5_RR6.opus
</region>

<region>
hivel=127
key=A#4
lovel=1
sample=4Trumpets_staccatissimo_PP_A#4_RR6.opus
</region>

<region>
hivel=127
key=A#3
lovel=1
offset=550
sample=4Trumpets_staccatissimo_PP_A#3_RR6.opus
</region>
</group>

<group>
group_label=RR7_85-127
seq_length=8
seq_position=7
xf_cccurve=gain
xfin_hicc1=127
xfin_locc1=85
xfout_hicc1=127
xfout_locc1=127

<region>
hivel=127
key=G5
lovel=1
offset=104
sample=4Trumpets_staccatissimo_FF_G5_RR7.opus
</region>

<region>
hivel=127
key=G4
lovel=1
sample=4Trumpets_staccatissimo_FF_G4_RR7.opus
</region>

<region>
hivel=127
key=G3
lovel=1
offset=190
sample=4Trumpets_staccatissimo_FF_G3_RR7.opus
</region>

<region>
hivel=127
key=G#5
lovel=1
offset=729
sample=4Trumpets_staccatissimo_FF_G#5_RR7.opus
</region>

<region>
hivel=127
key=G#4
lovel=1
offset=872
sample=4Trumpets_staccatissimo_FF_G#4_RR7.opus
</region>

<region>
hivel=127
key=G#3
lovel=1
offset=961
sample=4Trumpets_staccatissimo_FF_G#3_RR7.opus
</region>

<region>
hivel=127
key=F5
lovel=1
offset=196
sample=4Trumpets_staccatissimo_FF_F5_RR7.opus
</region>

<region>
hivel=127
key=F4
lovel=1
offset=234
sample=4Trumpets_staccatissimo_FF_F4_RR7.opus
</region>

<region>
hivel=127
key=F#5
lovel=1
offset=493
sample=4Trumpets_staccatissimo_FF_F#5_RR7.opus
</region>

<region>
hivel=127
key=F#4
lovel=1
offset=448
sample=4Trumpets_staccatissimo_FF_F#4_RR7.opus
</region>

<region>
hivel=127
key=F#3
lovel=1
offset=529
sample=4Trumpets_staccatissimo_FF_F#3_RR7.opus
</region>

<region>
hivel=127
key=E5
lovel=1
offset=359
sample=4Trumpets_staccatissimo_FF_E5_RR7.opus
</region>

<region>
hivel=127
key=E4
lovel=1
offset=220
sample=4Trumpets_staccatissimo_FF_E4_RR7.opus
</region>

<region>
hivel=127
key=D5
lovel=1
offset=280
sample=4Trumpets_staccatissimo_FF_D5_RR7.opus
</region>

<region>
hivel=127
key=D4
lovel=1
offset=20
sample=4Trumpets_staccatissimo_FF_D4_RR7.opus
</region>

<region>
hivel=127
key=D#5
lovel=1
sample=4Trumpets_staccatissimo_FF_D#5_RR7.opus
</region>

<region>
hivel=127
key=D#4
lovel=1
offset=102
sample=4Trumpets_staccatissimo_FF_D#4_RR7.opus
</region>

<region>
hivel=127
key=C6
lovel=1
offset=239
sample=4Trumpets_staccatissimo_FF_C6_RR7.opus
</region>

<region>
hivel=127
key=C5
lovel=1
sample=4Trumpets_staccatissimo_FF_C5_RR7.opus
</region>

<region>
hivel=127
key=C4
lovel=1
sample=4Trumpets_staccatissimo_FF_C4_RR7.opus
</region>

<region>
hivel=127
key=C#5
lovel=1
offset=305
sample=4Trumpets_staccatissimo_FF_C#5_RR7.opus
</region>

<region>
hivel=127
key=C#4
lovel=1
offset=394
sample=4Trumpets_staccatissimo_FF_C#4_RR7.opus
</region>

<region>
hivel=127
key=B5
lovel=1
sample=4Trumpets_staccatissimo_FF_B5_RR7.opus
</region>

<region>
hivel=127
key=B4
lovel=1
offset=84
sample=4Trumpets_staccatissimo_FF_B4_RR7.opus
</region>

<region>
hivel=127
key=B3
lovel=1
offset=293
sample=4Trumpets_staccatissimo_FF_B3_RR7.opus
</region>

<region>
hivel=127
key=A5
lovel=1
sample=4Trumpets_staccatissimo_FF_A5_RR7.opus
</region>

<region>
hivel=127
key=A4
lovel=1
offset=392
sample=4Trumpets_staccatissimo_FF_A4_RR7.opus
</region>

<region>
hivel=127
key=A3
lovel=1
sample=4Trumpets_staccatissimo_FF_A3_RR7.opus
</region>

<region>
hivel=127
key=A#5
lovel=1
sample=4Trumpets_staccatissimo_FF_A#5_RR7.opus
</region>

<region>
hivel=127
key=A#4
lovel=1
sample=4Trumpets_staccatissimo_FF_A#4_RR7.opus
</region>

<region>
hivel=127
key=A#3
lovel=1
offset=154
sample=4Trumpets_staccatissimo_FF_A#3_RR7.opus
</region>
</group>

<group>
group_label=RR7_43-84
seq_length=8
seq_position=7
xf_cccurve=gain
xfin_hicc1=84
xfin_locc1=43
xfout_hicc1=125
xfout_locc1=84

<region>
hivel=127
key=G5
lovel=1
offset=647
sample=4Trumpets_staccatissimo_MF_G5_RR7.opus
</region>

<region>
hivel=127
key=G4
lovel=1
offset=268
sample=4Trumpets_staccatissimo_MF_G4_RR7.opus
</region>

<region>
hivel=127
key=G3
lovel=1
offset=2
sample=4Trumpets_staccatissimo_MF_G3_RR7.opus
</region>

<region>
hivel=127
key=G#5
lovel=1
offset=340
sample=4Trumpets_staccatissimo_MF_G#5_RR7.opus
</region>

<region>
hivel=127
key=G#4
lovel=1
sample=4Trumpets_staccatissimo_MF_G#4_RR7.opus
</region>

<region>
hivel=127
key=G#3
lovel=1
offset=975
sample=4Trumpets_staccatissimo_MF_G#3_RR7.opus
</region>

<region>
hivel=127
key=F5
lovel=1
offset=258
sample=4Trumpets_staccatissimo_MF_F5_RR7.opus
</region>

<region>
hivel=127
key=F4
lovel=1
offset=161
sample=4Trumpets_staccatissimo_MF_F4_RR7.opus
</region>

<region>
hivel=127
key=F#5
lovel=1
offset=344
sample=4Trumpets_staccatissimo_MF_F#5_RR7.opus
</region>

<region>
hivel=127
key=F#4
lovel=1
offset=274
sample=4Trumpets_staccatissimo_MF_F#4_RR7.opus
</region>

<region>
hivel=127
key=F#3
lovel=1
offset=2317
sample=4Trumpets_staccatissimo_MF_F#3_RR7.opus
</region>

<region>
hivel=127
key=E5
lovel=1
offset=45
sample=4Trumpets_staccatissimo_MF_E5_RR7.opus
</region>

<region>
hivel=127
key=E4
lovel=1
sample=4Trumpets_staccatissimo_MF_E4_RR7.opus
</region>

<region>
hivel=127
key=D5
lovel=1
sample=4Trumpets_staccatissimo_MF_D5_RR7.opus
</region>

<region>
hivel=127
key=D4
lovel=1
sample=4Trumpets_staccatissimo_MF_D4_RR7.opus
</region>

<region>
hivel=127
key=D#5
lovel=1
offset=377
sample=4Trumpets_staccatissimo_MF_D#5_RR7.opus
</region>

<region>
hivel=127
key=D#4
lovel=1
sample=4Trumpets_staccatissimo_MF_D#4_RR7.opus
</region>

<region>
hivel=127
key=C6
lovel=1
offset=103
sample=4Trumpets_staccatissimo_MF_C6_RR7.opus
</region>

<region>
hivel=127
key=C5
lovel=1
offset=316
sample=4Trumpets_staccatissimo_MF_C5_RR7.opus
</region>

<region>
hivel=127
key=C4
lovel=1
offset=773
sample=4Trumpets_staccatissimo_MF_C4_RR7.opus
</region>

<region>
hivel=127
key=C#5
lovel=1
sample=4Trumpets_staccatissimo_MF_C#5_RR7.opus
</region>

<region>
hivel=127
key=C#4
lovel=1
offset=61
sample=4Trumpets_staccatissimo_MF_C#4_RR7.opus
</region>

<region>
hivel=127
key=B5
lovel=1
offset=997
sample=4Trumpets_staccatissimo_MF_B5_RR7.opus
</region>

<region>
hivel=127
key=B4
lovel=1
sample=4Trumpets_staccatissimo_MF_B4_RR7.opus
</region>

<region>
hivel=127
key=B3
lovel=1
offset=344
sample=4Trumpets_staccatissimo_MF_B3_RR7.opus
</region>

<region>
hivel=127
key=A5
lovel=1
sample=4Trumpets_staccatissimo_MF_A5_RR7.opus
</region>

<region>
hivel=127
key=A4
lovel=1
sample=4Trumpets_staccatissimo_MF_A4_RR7.opus
</region>

<region>
hivel=127
key=A3
lovel=1
offset=151
sample=4Trumpets_staccatissimo_MF_A3_RR7.opus
</region>

<region>
hivel=127
key=A#5
lovel=1
sample=4Trumpets_staccatissimo_MF_A#5_RR7.opus
</region>

<region>
hivel=127
key=A#4
lovel=1
offset=191
sample=4Trumpets_staccatissimo_MF_A#4_RR7.opus
</region>

<region>
hivel=127
key=A#3
lovel=1
offset=695
sample=4Trumpets_staccatissimo_MF_A#3_RR7.opus
</region>
</group>

<group>
group_label=RR7_0-42
seq_length=8
seq_position=7
xf_cccurve=gain
xfin_hicc1=42
xfout_hicc1=84
xfout_locc1=42

<region>
hivel=127
key=G5
lovel=1
offset=1145
sample=4Trumpets_staccatissimo_PP_G5_RR7.opus
</region>

<region>
hivel=127
key=G4
lovel=1
offset=17
sample=4Trumpets_staccatissimo_PP_G4_RR7.opus
</region>

<region>
hivel=127
key=G3
lovel=1
sample=4Trumpets_staccatissimo_PP_G3_RR7.opus
</region>

<region>
hivel=127
key=G#5
lovel=1
offset=583
sample=4Trumpets_staccatissimo_PP_G#5_RR7.opus
</region>

<region>
hivel=127
key=G#4
lovel=1
offset=237
sample=4Trumpets_staccatissimo_PP_G#4_RR7.opus
</region>

<region>
hivel=127
key=G#3
lovel=1
offset=317
sample=4Trumpets_staccatissimo_PP_G#3_RR7.opus
</region>

<region>
hivel=127
key=F4
lovel=1
offset=1454
sample=4Trumpets_staccatissimo_PP_F4_RR7.opus
</region>

<region>
hivel=127
key=F#5
lovel=1
offset=352
sample=4Trumpets_staccatissimo_PP_F#5_RR7.opus
</region>

<region>
hivel=127
key=F#4
lovel=1
offset=291
sample=4Trumpets_staccatissimo_PP_F#4_RR7.opus
</region>

<region>
hivel=127
key=F#3
lovel=1
offset=1690
sample=4Trumpets_staccatissimo_PP_F#3_RR7.opus
</region>

<region>
hikey=F5
hivel=127
lokey=E5
lovel=1
pitch_keycenter=E5
sample=4Trumpets_staccatissimo_PP_E5_RR7.opus
</region>

<region>
hivel=127
key=E4
lovel=1
offset=112
sample=4Trumpets_staccatissimo_PP_E4_RR7.opus
</region>

<region>
hivel=127
key=D5
lovel=1
sample=4Trumpets_staccatissimo_PP_D5_RR7.opus
</region>

<region>
hivel=127
key=D4
lovel=1
offset=1302
sample=4Trumpets_staccatissimo_PP_D4_RR7.opus
</region>

<region>
hivel=127
key=D#5
lovel=1
sample=4Trumpets_staccatissimo_PP_D#5_RR7.opus
</region>

<region>
hivel=127
key=D#4
lovel=1
offset=468
sample=4Trumpets_staccatissimo_PP_D#4_RR7.opus
</region>

<region>
hivel=127
key=C6
lovel=1
offset=102
sample=4Trumpets_staccatissimo_PP_C6_RR7.opus
</region>

<region>
hivel=127
key=C5
lovel=1
sample=4Trumpets_staccatissimo_PP_C5_RR7.opus
</region>

<region>
hivel=127
key=C4
lovel=1
offset=719
sample=4Trumpets_staccatissimo_PP_C4_RR7.opus
</region>

<region>
hivel=127
key=C#5
lovel=1
offset=601
sample=4Trumpets_staccatissimo_PP_C#5_RR7.opus
</region>

<region>
hivel=127
key=C#4
lovel=1
offset=468
sample=4Trumpets_staccatissimo_PP_C#4_RR7.opus
</region>

<region>
hivel=127
key=B5
lovel=1
offset=437
sample=4Trumpets_staccatissimo_PP_B5_RR7.opus
</region>

<region>
hivel=127
key=B4
lovel=1
offset=424
sample=4Trumpets_staccatissimo_PP_B4_RR7.opus
</region>

<region>
hivel=127
key=B3
lovel=1
offset=323
sample=4Trumpets_staccatissimo_PP_B3_RR7.opus
</region>

<region>
hivel=127
key=A5
lovel=1
offset=45
sample=4Trumpets_staccatissimo_PP_A5_RR7.opus
</region>

<region>
hivel=127
key=A4
lovel=1
sample=4Trumpets_staccatissimo_PP_A4_RR7.opus
</region>

<region>
hivel=127
key=A3
lovel=1
offset=520
sample=4Trumpets_staccatissimo_PP_A3_RR7.opus
</region>

<region>
hivel=127
key=A#5
lovel=1
offset=375
sample=4Trumpets_staccatissimo_PP_A#5_RR7.opus
</region>

<region>
hivel=127
key=A#4
lovel=1
offset=117
sample=4Trumpets_staccatissimo_PP_A#4_RR7.opus
</region>

<region>
hivel=127
key=A#3
lovel=1
offset=99
sample=4Trumpets_staccatissimo_PP_A#3_RR7.opus
</region>
</group>

<group>
group_label=RR8_85-127
seq_length=8
seq_position=8
xf_cccurve=gain
xfin_hicc1=127
xfin_locc1=85
xfout_hicc1=127
xfout_locc1=127

<region>
hivel=127
key=G5
lovel=1
sample=4Trumpets_staccatissimo_FF_G5_RR8.opus
</region>

<region>
hivel=127
key=G4
lovel=1
sample=4Trumpets_staccatissimo_FF_G4_RR8.opus
</region>

<region>
hivel=127
key=G3
lovel=1
sample=4Trumpets_staccatissimo_FF_G3_RR8.opus
</region>

<region>
hivel=127
key=G#5
lovel=1
sample=4Trumpets_staccatissimo_FF_G#5_RR8.opus
</region>

<region>
hivel=127
key=G#4
lovel=1
sample=4Trumpets_staccatissimo_FF_G#4_RR8.opus
</region>

<region>
hivel=127
key=G#3
lovel=1
offset=1297
sample=4Trumpets_staccatissimo_FF_G#3_RR8.opus
</region>

<region>
hivel=127
key=F5
lovel=1
offset=266
sample=4Trumpets_staccatissimo_FF_F5_RR8.opus
</region>

<region>
hivel=127
key=F4
lovel=1
sample=4Trumpets_staccatissimo_FF_F4_RR8.opus
</region>

<region>
hivel=127
key=F#5
lovel=1
sample=4Trumpets_staccatissimo_FF_F#5_RR8.opus
</region>

<region>
hivel=127
key=F#4
lovel=1
sample=4Trumpets_staccatissimo_FF_F#4_RR8.opus
</region>

<region>
hivel=127
key=F#3
lovel=1
offset=5
sample=4Trumpets_staccatissimo_FF_F#3_RR8.opus
</region>

<region>
hivel=127
key=E5
lovel=1
sample=4Trumpets_staccatissimo_FF_E5_RR8.opus
</region>

<region>
hivel=127
key=E4
lovel=1
sample=4Trumpets_staccatissimo_FF_E4_RR8.opus
</region>

<region>
hivel=127
key=D5
lovel=1
offset=115
sample=4Trumpets_staccatissimo_FF_D5_RR8.opus
</region>

<region>
hivel=127
key=D4
lovel=1
offset=211
sample=4Trumpets_staccatissimo_FF_D4_RR8.opus
</region>

<region>
hivel=127
key=D#5
lovel=1
offset=17
sample=4Trumpets_staccatissimo_FF_D#5_RR8.opus
</region>

<region>
hivel=127
key=D#4
lovel=1
sample=4Trumpets_staccatissimo_FF_D#4_RR8.opus
</region>

<region>
hivel=127
key=C6
lovel=1
sample=4Trumpets_staccatissimo_FF_C6_RR8.opus
</region>

<region>
hivel=127
key=C5
lovel=1
offset=484
sample=4Trumpets_staccatissimo_FF_C5_RR8.opus
</region>

<region>
hivel=127
key=C4
lovel=1
offset=232
sample=4Trumpets_staccatissimo_FF_C4_RR8.opus
</region>

<region>
hivel=127
key=C#5
lovel=1
sample=4Trumpets_staccatissimo_FF_C#5_RR8.opus
</region>

<region>
hivel=127
key=C#4
lovel=1
offset=220
sample=4Trumpets_staccatissimo_FF_C#4_RR8.opus
</region>

<region>
hivel=127
key=B5
lovel=1
sample=4Trumpets_staccatissimo_FF_B5_RR8.opus
</region>

<region>
hivel=127
key=B4
lovel=1
sample=4Trumpets_staccatissimo_FF_B4_RR8.opus
</region>

<region>
hivel=127
key=B3
lovel=1
offset=757
sample=4Trumpets_staccatissimo_FF_B3_RR8.opus
</region>

<region>
hivel=127
key=A5
lovel=1
sample=4Trumpets_staccatissimo_FF_A5_RR8.opus
</region>

<region>
hivel=127
key=A4
lovel=1
offset=535
sample=4Trumpets_staccatissimo_FF_A4_RR8.opus
</region>

<region>
hivel=127
key=A3
lovel=1
offset=179
sample=4Trumpets_staccatissimo_FF_A3_RR8.opus
</region>

<region>
hivel=127
key=A#5
lovel=1
offset=22
sample=4Trumpets_staccatissimo_FF_A#5_RR8.opus
</region>

<region>
hivel=127
key=A#4
lovel=1
sample=4Trumpets_staccatissimo_FF_A#4_RR8.opus
</region>

<region>
hivel=127
key=A#3
lovel=1
offset=61
sample=4Trumpets_staccatissimo_FF_A#3_RR8.opus
</region>
</group>

<group>
group_label=RR8_43-84
seq_length=8
seq_position=8
xf_cccurve=gain
xfin_hicc1=84
xfin_locc1=43
xfout_hicc1=125
xfout_locc1=84

<region>
hivel=127
key=G5
lovel=1
offset=215
sample=4Trumpets_staccatissimo_MF_G5_RR8.opus
</region>

<region>
hivel=127
key=G4
lovel=1
sample=4Trumpets_staccatissimo_MF_G4_RR8.opus
</region>

<region>
hivel=127
key=G3
lovel=1
offset=542
sample=4Trumpets_staccatissimo_MF_G3_RR8.opus
</region>

<region>
hivel=127
key=G#5
lovel=1
sample=4Trumpets_staccatissimo_MF_G#5_RR8.opus
</region>

<region>
hivel=127
key=G#4
lovel=1
sample=4Trumpets_staccatissimo_MF_G#4_RR8.opus
</region>

<region>
hivel=127
key=G#3
lovel=1
offset=239
sample=4Trumpets_staccatissimo_MF_G#3_RR8.opus
</region>

<region>
hivel=127
key=F5
lovel=1
offset=286
sample=4Trumpets_staccatissimo_MF_F5_RR8.opus
</region>

<region>
hivel=127
key=F4
lovel=1
sample=4Trumpets_staccatissimo_MF_F4_RR8.opus
</region>

<region>
hivel=127
key=F#5
lovel=1
offset=235
sample=4Trumpets_staccatissimo_MF_F#5_RR8.opus
</region>

<region>
hivel=127
key=F#4
lovel=1
sample=4Trumpets_staccatissimo_MF_F#4_RR8.opus
</region>

<region>
hivel=127
key=F#3
lovel=1
offset=32
sample=4Trumpets_staccatissimo_MF_F#3_RR8.opus
</region>

<region>
hivel=127
key=E5
lovel=1
offset=115
sample=4Trumpets_staccatissimo_MF_E5_RR8.opus
</region>

<region>
hivel=127
key=E4
lovel=1
offset=631
sample=4Trumpets_staccatissimo_MF_E4_RR8.opus
</region>

<region>
hivel=127
key=D5
lovel=1
offset=46
sample=4Trumpets_staccatissimo_MF_D5_RR8.opus
</region>

<region>
hivel=127
key=D4
lovel=1
sample=4Trumpets_staccatissimo_MF_D4_RR8.opus
</region>

<region>
hivel=127
key=D#5
lovel=1
offset=845
sample=4Trumpets_staccatissimo_MF_D#5_RR8.opus
</region>

<region>
hivel=127
key=D#4
lovel=1
offset=477
sample=4Trumpets_staccatissimo_MF_D#4_RR8.opus
</region>

<region>
hivel=127
key=C6
lovel=1
offset=142
sample=4Trumpets_staccatissimo_MF_C6_RR8.opus
</region>

<region>
hivel=127
key=C5
lovel=1
sample=4Trumpets_staccatissimo_MF_C5_RR8.opus
</region>

<region>
hivel=127
key=C4
lovel=1
sample=4Trumpets_staccatissimo_MF_C4_RR8.opus
</region>

<region>
hivel=127
key=C#5
lovel=1
offset=940
sample=4Trumpets_staccatissimo_MF_C#5_RR8.opus
</region>

<region>
hivel=127
key=C#4
lovel=1
offset=2027
sample=4Trumpets_staccatissimo_MF_C#4_RR8.opus
</region>

<region>
hivel=127
key=B5
lovel=1
offset=104
sample=4Trumpets_staccatissimo_MF_B5_RR8.opus
</region>

<region>
hivel=127
key=B4
lovel=1
offset=304
sample=4Trumpets_staccatissimo_MF_B4_RR8.opus
</region>

<region>
hivel=127
key=B3
lovel=1
offset=419
sample=4Trumpets_staccatissimo_MF_B3_RR8.opus
</region>

<region>
hivel=127
key=A5
lovel=1
offset=518
sample=4Trumpets_staccatissimo_MF_A5_RR8.opus
</region>

<region>
hivel=127
key=A4
lovel=1
offset=645
sample=4Trumpets_staccatissimo_MF_A4_RR8.opus
</region>

<region>
hivel=127
key=A3
lovel=1
offset=326
sample=4Trumpets_staccatissimo_MF_A3_RR8.opus
</region>

<region>
hivel=127
key=A#5
lovel=1
offset=227
sample=4Trumpets_staccatissimo_MF_A#5_RR8.opus
</region>

<region>
hivel=127
key=A#4
lovel=1
sample=4Trumpets_staccatissimo_MF_A#4_RR8.opus
</region>

<region>
hivel=127
key=A#3
lovel=1
offset=67
sample=4Trumpets_staccatissimo_MF_A#3_RR8.opus
</region>
</group>

<group>
group_label=RR8_0-42
seq_length=8
seq_position=8
xf_cccurve=gain
xfin_hicc1=42
xfout_hicc1=84
xfout_locc1=42

<region>
hivel=127
key=G5
lovel=1
offset=42
sample=4Trumpets_staccatissimo_PP_G5_RR8.opus
</region>

<region>
hivel=127
key=G4
lovel=1
offset=5
sample=4Trumpets_staccatissimo_PP_G4_RR8.opus
</region>

<region>
hivel=127
key=G3
lovel=1
offset=300
sample=4Trumpets_staccatissimo_PP_G3_RR8.opus
</region>

<region>
hivel=127
key=G#5
lovel=1
offset=629
sample=4Trumpets_staccatissimo_PP_G#5_RR8.opus
</region>

<region>
hivel=127
key=G#4
lovel=1
offset=310
sample=4Trumpets_staccatissimo_PP_G#4_RR8.opus
</region>

<region>
hivel=127
key=G#3
lovel=1
offset=314
sample=4Trumpets_staccatissimo_PP_G#3_RR8.opus
</region>

<region>
hivel=127
key=F5
lovel=1
offset=146
sample=4Trumpets_staccatissimo_PP_F5_RR8.opus
</region>

<region>
hivel=127
key=F4
lovel=1
offset=542
sample=4Trumpets_staccatissimo_PP_F4_RR8.opus
</region>

<region>
hivel=127
key=F#5
lovel=1
offset=610
sample=4Trumpets_staccatissimo_PP_F#5_RR8.opus
</region>

<region>
hivel=127
key=F#4
lovel=1
sample=4Trumpets_staccatissimo_PP_F#4_RR8.opus
</region>

<region>
hivel=127
key=F#3
lovel=1
offset=62
sample=4Trumpets_staccatissimo_PP_F#3_RR8.opus
</region>

<region>
hivel=127
key=E5
lovel=1
offset=25
sample=4Trumpets_staccatissimo_PP_E5_RR8.opus
</region>

<region>
hivel=127
key=E4
lovel=1
sample=4Trumpets_staccatissimo_PP_E4_RR8.opus
</region>

<region>
hivel=127
key=D5
lovel=1
offset=312
sample=4Trumpets_staccatissimo_PP_D5_RR8.opus
</region>

<region>
hivel=127
key=D4
lovel=1
offset=703
sample=4Trumpets_staccatissimo_PP_D4_RR8.opus
</region>

<region>
hivel=127
key=D#5
lovel=1
sample=4Trumpets_staccatissimo_PP_D#5_RR8.opus
</region>

<region>
hivel=127
key=D#4
lovel=1
offset=584
sample=4Trumpets_staccatissimo_PP_D#4_RR8.opus
</region>

<region>
hivel=127
key=C6
lovel=1
offset=159
sample=4Trumpets_staccatissimo_PP_C6_RR8.opus
</region>

<region>
hivel=127
key=C5
lovel=1
sample=4Trumpets_staccatissimo_PP_C5_RR8.opus
</region>

<region>
hivel=127
key=C4
lovel=1
offset=646
sample=4Trumpets_staccatissimo_PP_C4_RR8.opus
</region>

<region>
hivel=127
key=C#5
lovel=1
offset=136
sample=4Trumpets_staccatissimo_PP_C#5_RR8.opus
</region>

<region>
hivel=127
key=C#4
lovel=1
offset=408
sample=4Trumpets_staccatissimo_PP_C#4_RR8.opus
</region>

<region>
hivel=127
key=B5
lovel=1
offset=10
sample=4Trumpets_staccatissimo_PP_B5_RR8.opus
</region>

<region>
hivel=127
key=B4
lovel=1
offset=421
sample=4Trumpets_staccatissimo_PP_B4_RR8.opus
</region>

<region>
hivel=127
key=B3
lovel=1
offset=708
sample=4Trumpets_staccatissimo_PP_B3_RR8.opus
</region>

<region>
hivel=127
key=A5
lovel=1
offset=643
sample=4Trumpets_staccatissimo_PP_A5_RR8.opus
</region>

<region>
hivel=127
key=A4
lovel=1
sample=4Trumpets_staccatissimo_PP_A4_RR8.opus
</region>

<region>
hivel=127
key=A3
lovel=1
offset=1257
sample=4Trumpets_staccatissimo_PP_A3_RR8.opus
</region>

<region>
hivel=127
key=A#5
lovel=1
offset=1
sample=4Trumpets_staccatissimo_PP_A#5_RR8.opus
</region>

<region>
hivel=127
key=A#4
lovel=1
offset=130
sample=4Trumpets_staccatissimo_PP_A#4_RR8.opus
</region>

<region>
hivel=127
key=A#3
lovel=1
sample=4Trumpets_staccatissimo_PP_A#3_RR8.opus
</region>
</group>